<?xml version="1.0" encoding="utf-8"?>
<!-- Generator: Adobe Illustrator 27.5.0, SVG Export Plug-In . SVG Version: 6.00 Build 0)  -->
<svg version="1.1" id="Layer_1" xmlns="http://www.w3.org/2000/svg" xmlns:xlink="http://www.w3.org/1999/xlink" x="0px" y="0px"
	 viewBox="0 0 261.62 73.34" style="enable-background:new 0 0 261.62 73.34;" xml:space="preserve">
<style type="text/css">
	.st0{fill:black;}
</style>
<g>
	<path class="st0" d="M19.84,31.92c5.82-2.9,12.7-8.93,12.7-12.59c0-2.87-3.07-4.01-14.59-1.79l1.84,14.38H19.84z M97.83,32.11
		l9.04,0.61l-4.82-11.62L97.83,32.11z M205.5,25.23c-0.08-2.27-3.15-3.9-10.79-3.87l-2.03,14.33
		C199.89,32.82,205.5,28.49,205.5,25.23 M251.5,21.86l-2.22,8.45c-5.51-2.25-11.47-3.96-14.88-3.96c-3.5,0-3.89,1.13-3.89,1.83
		c0,5.84,19.4,7.79,19.4,17.23c0,4.05-3.54,6.7-9.82,6.91c-6.06,0.2-11.9-2.96-17.75-8.16l2.06-3.11c4.14,3.06,8.65,4.82,13.04,5.67
		c3.26,0.28,4.82-0.58,4.82-2.55c0-6.44-21.41-6.79-21.41-18.48c0-4.46,3.55-8.94,11.14-8.94C240.46,16.76,251.5,21.86,251.5,21.86
		 M205.44,35.82l17.13,14.71l-5.33,6.34l-20.02-17.06c-2.41,0.99-4.96,1.84-4.96,1.84l-1.06,8.15l-4.75-0.35l2.53-31.65
		c15.19-0.62,25.82,1.86,25.82,6.99C214.8,28.14,210.44,32.18,205.44,35.82 M180.36,49.46l-16.44,2.25l-4.7-32.73l19.98-2.67v6.15
		l-13.21,1.5l0.79,6.33l10.99-0.82l1.43,9.4l-11.86,0.97l0.97,6.01l11.47-0.63L180.36,49.46z M152.89,23.87l-19.22,30.06
		l-15.2-31.42l9.88-3.15l8.26,16.33l11.59-21.03L152.89,23.87z M121.21,44.31l-8.54,5.63l-5.1-14.38l-10.61,0.03L89.94,52.3
		l-4.38-1.85l13.02-34.71l8.74,2L121.21,44.31z M80.01,49.46l-16.36,2.17l-4.7-32.73l19.98-2.67v6.15l-13.21,1.5l0.79,6.45
		L77.5,29.5l1.43,9.29l-11.86,0.97l0.97,6.01l11.47-0.63L80.01,49.46z M55.74,44.15c0,5.95-9.98,13.07-31.59,15.46l-0.97-5.47
		c15.73-3.54,22.53-8.56,22.53-11.61c0-3.23-5.52-5.35-25-3.35l1.25,10.12l-5.18,0.97l-6.34-35.05c17.92-4.64,35.72-5.57,35.72,1.65
		c0,5.89-6.12,12.43-18.53,17.7C45.83,32.35,55.74,37.01,55.74,44.15 M261.62,17.65c-4.61-1.91-9.16-3.95-13.82-5.67
		c-23.22-7.16-31.66,2.12-31.95,1.96c-4.38-2.38-9.14-3.39-14.02-3.77c-4.65-0.36-9.33-0.42-14.14-0.62V7.02
		c-3.42,0.46-32.27,3.98-32.4,3.74C151.64,5.24,147.89,0,147.81,0c-1.5,2.81-9.06,13.12-11.4,17.38c-1.37-2.69-2.66-5.24-4.03-7.93
		c-5.79,1.84-11.55,3.67-17.38,5.53c-0.58-1.1-1.06-2.2-1.72-3.19c-0.33-0.5-21.03-5.39-21.33-4.59
		c-1.35,3.71-4.28,11.38-4.54,11.51V6.95C85,7.27,52.87,11.26,52.71,11.02c-2.82-4.19-6.99-6.06-11.76-6.87
		C34.8,3.11,28.67,3.64,22.56,4.46C14.9,5.5,7.46,7.53,0,9.47c-0.11,0.03,8.12,47.4,9,52.29c1.83-0.33,3.58-0.64,5.47-0.99
		c0.58,3.22,1.15,6.38,1.75,9.68c13.49-1.34,26.87-2.69,38.81-10.21c0.16,0.83,0.31,1.58,0.48,2.46c2.06-0.26,18.43-2.44,24.57-3.23
		c0.44-0.06,8.95,3.45,12.74,5.05c0.44,0.18,0.88,0.35,1.4,0.56c2.38-5.67,4.75-11.29,7.25-17.23c2.05,5.77,4,11.26,6.02,16.93
		c5.19-3.42,10.27-6.76,15.47-10.18c3.04,6.26,6.02,12.42,9.09,18.75c6.86-10.73,13.62-21.3,20.57-32.17
		c1.07,7.39,2.09,14.45,3.12,21.64c2.4-0.32,19.31-2.75,25.46-3.4c2.47-0.26,16.88,0.91,17.28,0.91c0.24-1.77,0.48-3.5,0.76-5.49
		c6.22,5.3,12.32,10.49,18.52,15.76c0.95-1.12,8.07-9.57,9.94-11.92c0.65-0.81,9.35,4.82,18.95,2.56
		c5.94-1.87,10.05-5.65,11.42-11.93c0.76-3.48-0.53-7.83-2.02-11.04C255.79,37.72,261.5,18.12,261.62,17.65"/>
</g>
</svg>
