<?xml version="1.0" encoding="utf-8"?>
<!-- Generator: Adobe Illustrator 27.5.0, SVG Export Plug-In . SVG Version: 6.00 Build 0)  -->
<svg version="1.1" id="Layer_1" xmlns="http://www.w3.org/2000/svg" xmlns:xlink="http://www.w3.org/1999/xlink" x="0px" y="0px"
	 viewBox="0 0 175.59 67.64" style="enable-background:new 0 0 175.59 67.64;" xml:space="preserve">
<style type="text/css">
	.st0{fill:black;}
</style>
<g>
	<path class="st0" d="M170.76,43.96l-7.08-8.86c-0.89-1.1-1.33-1.93-1.33-2.48c0-1.27,1.24-1.9,3.72-1.9h8.78V17.63h-18.13
		c-4.75,0-7.5,1.49-9.93,4.47c-1.77,2.15-2.65,4.5-2.65,7.04c0,3.81,0.8,7.56,4.05,11.26l8.11,9.19c1.05,1.21,1.57,2.23,1.57,3.06
		c0,0.99-0.75,1.49-2.24,1.49h-14.24l-8.95,13.49h30.62c3.7,0,6.72-1.21,9.04-3.64c2.32-2.43,3.49-5.3,3.49-8.61
		C175.59,51.8,173.98,47.99,170.76,43.96 M118.88,48.6c-2.43,3.2-5.52,5.05-9.27,5.55V31.13h5.13c5.19,0,7.78,2.29,7.78,6.87
		C122.52,41.86,121.31,45.4,118.88,48.6 M134.28,23.51c-3.53-3.92-9-5.88-16.39-5.88h-8.28V0H93.71v67.64h16.39
		c7.73,0,14.43-3.05,20.12-9.15c5.68-6.1,8.53-13.31,8.53-21.65C138.75,31.27,137.26,26.82,134.28,23.51 M86.68,17.63h-15.9v36.51
		h-1.74c-3.92,0-6.57-0.41-7.95-1.24c-2.04-1.16-3.06-3.56-3.06-7.2c0-3.48,0.96-8.2,2.9-14.16c0.17-0.39,1.88-5.02,5.13-13.91
		H49.75c-5.69,12.09-8.53,21.8-8.53,29.14c0,13.91,6.68,20.86,20.04,20.86h25.42V17.63z M35.02,54.19H24.42
		c-5.74,0-9.14-2.51-9.14-7.63c0-4.73,2.27-8.36,5.58-11.39c2.98-2.7,6.32-4.04,10.02-4.04h5.05l6.63-13.5H30.63
		c-8.89,0-16.21,2.84-21.98,8.53C2.88,31.85,0,38.88,0,47.27c0,6.4,1.71,11.34,5.13,14.82c3.64,3.7,8.97,5.55,15.98,5.55h18.51
		L35.02,54.19z"/>
</g>
</svg>
