<?xml version="1.0" encoding="utf-8"?>
<!-- Generator: Adobe Illustrator 27.5.0, SVG Export Plug-In . SVG Version: 6.00 Build 0)  -->
<svg version="1.1" id="Layer_1" xmlns="http://www.w3.org/2000/svg" xmlns:xlink="http://www.w3.org/1999/xlink" x="0px" y="0px"
	 viewBox="0 0 162.39 172.23" style="enable-background:new 0 0 162.39 172.23;" xml:space="preserve">
<style type="text/css">
	.st0{fill:white;}
</style>
<g>
	<path class="st0" d="M0,112.67l4.71-5.64c3.26,2.69,6.68,4.4,10.82,4.4c3.26,0,5.23-1.29,5.23-3.42v-0.1c0-2.02-1.24-3.05-7.3-4.6
		c-7.3-1.86-12.01-3.88-12.01-11.08v-0.1c0-6.57,5.28-10.92,12.68-10.92c5.28,0,9.78,1.66,13.46,4.61l-4.14,6
		c-3.21-2.23-6.37-3.57-9.42-3.57c-3.05,0-4.66,1.4-4.66,3.16v0.1c0,2.38,1.55,3.16,7.81,4.76c7.35,1.91,11.49,4.55,11.49,10.87v0.1
		c0,7.19-5.49,11.23-13.3,11.23C9.88,118.47,4.35,116.56,0,112.67"/>
	<path class="st0" d="M31.64,104.24v-0.11c0-7.92,6.05-14.44,14.54-14.44c5.23,0,8.49,1.76,11.08,4.66l-4.81,5.18
		c-1.76-1.86-3.52-3.06-6.31-3.06c-3.94,0-6.73,3.47-6.73,7.56v0.1c0,4.24,2.74,7.66,7.04,7.66c2.64,0,4.45-1.14,6.37-2.95
		l4.61,4.66c-2.69,2.95-5.8,5.07-11.33,5.07C37.75,118.58,31.64,112.16,31.64,104.24"/>
	<path class="st0" d="M58.96,104.24v-0.11c0-7.97,6.42-14.44,15.06-14.44c8.59,0,14.95,6.36,14.95,14.33v0.1c0,7.97-6.42,14.44-15.06,14.44
		C65.32,118.58,58.96,112.21,58.96,104.24 M81.21,104.24v-0.11c0-4.09-2.95-7.66-7.3-7.66c-4.5,0-7.19,3.47-7.19,7.56v0.1
		c0,4.09,2.95,7.66,7.3,7.66C78.52,111.79,81.21,108.33,81.21,104.24"/>
	<path class="st0" d="M92.04,108.17V90.21h7.87v15.47c0,3.73,1.76,5.64,4.76,5.64c3,0,4.92-1.91,4.92-5.64V90.21h7.87v27.74h-7.87v-3.93
		c-1.81,2.33-4.14,4.45-8.13,4.45C95.51,118.47,92.04,114.54,92.04,108.17"/>
	<path class="st0" d="M122.03,110.09V83.12h7.87v7.09h6.52v6.73h-6.52v11.85c0,1.81,0.78,2.69,2.54,2.69c1.45,0,2.74-0.36,3.88-0.99v6.31
		c-1.66,0.98-3.57,1.6-6.21,1.6C125.29,118.42,122.03,116.5,122.03,110.09"/>
	<path class="st0" d="M139.88,114.28l3.36-5.18c3,2.17,6.16,3.31,8.74,3.31c2.28,0,3.32-0.83,3.32-2.07v-0.1c0-1.71-2.69-2.28-5.75-3.21
		c-3.88-1.14-8.28-2.95-8.28-8.33v-0.1c0-5.64,4.56-8.8,10.15-8.8c3.52,0,7.35,1.19,10.35,3.21l-3,5.43
		c-2.74-1.6-5.49-2.59-7.5-2.59c-1.91,0-2.9,0.83-2.9,1.91v0.1c0,1.55,2.64,2.28,5.64,3.31c3.88,1.29,8.39,3.16,8.39,8.23v0.11
		c0,6.16-4.61,8.95-10.61,8.95C147.9,118.47,143.55,117.18,139.88,114.28"/>
	<path class="st0" d="M62.17,32.96c2.24,3.44,3.37,7.37,3.73,10.04H70c-0.34-3.26-1.66-8.04-4.42-12.27c-3.28-5.03-7.55-7.69-12.35-7.69h-0.03
		c-3.66,0-7.08,1.64-9.4,4.51c-2.43,3.02-3.35,6.91-2.53,10.7l3.98-0.87c-0.56-2.53,0.09-5.25,1.72-7.27c1.56-1.93,3.77-3,6.23-3
		h0.02C57.47,27.12,60.44,30.29,62.17,32.96L62.17,32.96z"/>
	<path class="st0" d="M91.75,61.47c-1.59-2.2-2.75-4.84-3.27-7.38h-4.13c0.32,1.98,1.16,5.26,3.38,8.71c-1.39,2.33-3.89,4.63-6.52,6c0,0,0,0,0,0
		s0,0,0,0c-2.64-1.38-5.14-3.67-6.53-6c2.22-3.45,3.06-6.73,3.38-8.71h-4.14c-0.51,2.54-1.67,5.18-3.27,7.38l-0.69,0.96l0.49,1.08
		c1.73,3.77,5.72,7.55,9.93,9.41l0.82,0.36l0.01,0l0.01,0l0.82-0.36c4.21-1.86,8.2-5.64,9.93-9.41l0.49-1.08L91.75,61.47
		L91.75,61.47z"/>
	<path class="st0" d="M100.22,32.96c-2.24,3.44-3.38,7.37-3.73,10.04h-4.1c0.34-3.26,1.66-8.04,4.42-12.27c3.28-5.03,7.55-7.69,12.34-7.69h0.03
		c3.66,0,7.08,1.64,9.4,4.51c2.43,3.02,3.35,6.91,2.52,10.7l-3.97-0.87c0.55-2.53-0.09-5.25-1.72-7.27c-1.56-1.93-3.77-3-6.23-3
		h-0.02C104.92,27.12,101.96,30.29,100.22,32.96L100.22,32.96z"/>
	<path class="st0" d="M74.08,43h4.1c-0.51-4.72-2.37-8.83-4.01-12.48c-1.64-3.64-3.19-7.07-3.16-10.49c0.03-3.94,2.28-7.95,6.01-10.74
		c0.65-0.49,2.51-1.92,4.18-3.45c1.67,1.53,3.52,2.96,4.18,3.45c3.73,2.79,5.97,6.8,6,10.74c0.02,3.42-1.52,6.86-3.16,10.49
		c-1.64,3.64-3.49,7.76-4,12.48h4.1c0.51-3.9,2.09-7.41,3.62-10.81c1.83-4.05,3.55-7.88,3.52-12.2c-0.05-5.2-2.9-10.42-7.63-13.96
		c-0.56-0.42-3.46-2.63-5.13-4.43L81.2,0l-1.49,1.6c-1.67,1.8-4.57,4.01-5.13,4.43C69.84,9.58,66.99,14.8,66.94,20
		c-0.03,4.32,1.7,8.14,3.52,12.2C72,35.6,73.58,39.11,74.08,43L74.08,43z"/>
	<polygon class="st0" points="57.95,46.59 57.95,50.5 104.44,50.5 104.44,46.59 57.95,46.59 	"/>
	<path class="st0" d="M26.6,147.05c3.25,0,5.17-1.51,5.17-4.05c0-2.25-1.32-3.21-2.69-3.61c1.11-0.4,2.33-1.32,2.33-3.3
		c0-2.41-1.85-3.84-5.04-3.84h-6.8v14.8H26.6L26.6,147.05z M26.22,140.77c1.7,0,2.48,0.59,2.48,1.91c0,1.3-0.78,1.87-2.48,1.87
		h-3.49v-3.78H26.22L26.22,140.77z M25.84,134.74c1.68,0,2.46,0.57,2.46,1.78c0,1.18-0.82,1.74-2.46,1.74h-3.11v-3.53H25.84
		L25.84,134.74z M36.95,147.05v-5.38c0-1.6,0.92-2.27,2.41-2.39l1.78-0.19l-0.19-2.62l-0.92,0.06c-1.64,0.1-2.69,0.76-3.21,1.95
		v-1.74h-3.04v10.31H36.95L36.95,147.05z M45.37,147.05v-10.31H42.2v10.31H45.37L45.37,147.05z M45.5,134.74v-2.96h-3.4v2.96H45.5
		L45.5,134.74z M52.66,150.99c3.74,0,5.65-1.7,5.65-5.06v-9.2h-3.15v1.45c-0.46-0.8-1.34-1.7-3.28-1.7c-2.79,0-4.6,1.97-4.6,5.14
		c0,3.15,1.78,5.12,4.6,5.12c1.95,0,2.86-0.9,3.3-1.72v1.13c0,1.64-0.86,2.46-2.6,2.46c-1.3,0-2.62-0.36-3.97-1.09l-0.84,2.18
		C48.82,150.39,49.8,150.99,52.66,150.99L52.66,150.99z M52.8,138.9c1.49,0,2.35,0.99,2.35,2.73c0,1.72-0.84,2.71-2.35,2.71
		s-2.37-0.99-2.37-2.71C50.43,139.89,51.29,138.9,52.8,138.9L52.8,138.9z M70.86,147.05v-6.21c0-2.92-1.2-4.35-3.65-4.35
		c-1.93,0-2.77,0.88-3.28,1.62v-5.86h-3.17v14.8h3.17v-5.77c0-1.43,0.82-2.31,2.18-2.31c1.07,0,1.57,0.63,1.57,2.02v6.07H70.86
		L70.86,147.05z M78.57,147.22c0.42,0,0.82-0.04,1.22-0.08l0.17-2.31c-0.36,0.04-0.69,0.06-1.01,0.06c-1.15,0-1.72-0.61-1.72-1.85
		v-3.93h2.58v-2.37h-2.58v-3.02h-3.17v3.02H72.1v2.37h1.95v3.95C74.06,145.89,75.51,147.22,78.57,147.22L78.57,147.22z
		 M86.34,147.22c3.4,0,5.46-2.04,5.46-5.38s-2.06-5.35-5.46-5.35c-3.42,0-5.48,1.99-5.48,5.35S82.92,147.22,86.34,147.22
		L86.34,147.22z M86.34,138.88c1.51,0,2.31,1.01,2.31,2.96c0,1.97-0.78,2.96-2.31,2.96c-1.55,0-2.33-0.99-2.33-2.96
		S84.79,138.88,86.34,138.88L86.34,138.88z M103.83,147.05v-6.21c0-2.92-1.2-4.35-3.65-4.35c-1.99,0-2.86,0.94-3.36,1.72v-1.47
		h-3.09v10.31h3.17v-5.77c0-1.43,0.82-2.31,2.18-2.31c1.07,0,1.57,0.63,1.57,2.02v6.07H103.83L103.83,147.05z M125.59,147.05v-14.8
		h-3.21v5.98h-6.82v-5.98h-3.21v14.8h3.21v-6.21h6.82v6.21H125.59L125.59,147.05z M131.45,147.05v-10.31h-3.17v10.31H131.45
		L131.45,147.05z M131.57,134.74v-2.96h-3.4v2.96H131.57L131.57,134.74z M137.06,147.05v-14.8h-3.17v14.8H137.06L137.06,147.05z
		 M142.66,147.05v-14.8h-3.17v14.8H142.66L142.66,147.05z"/>
	<path class="st0" d="M29.08,168.29c3.25,0,5.17-1.51,5.17-4.05c0-2.25-1.32-3.21-2.69-3.61c1.11-0.4,2.33-1.32,2.33-3.3
		c0-2.41-1.85-3.84-5.04-3.84h-6.8v14.8H29.08L29.08,168.29z M28.7,162.01c1.7,0,2.48,0.59,2.48,1.91c0,1.3-0.78,1.87-2.48,1.87
		h-3.49v-3.78H28.7L28.7,162.01z M28.32,155.98c1.68,0,2.46,0.57,2.46,1.78c0,1.18-0.82,1.74-2.46,1.74h-3.11v-3.53H28.32
		L28.32,155.98z M39.56,168.46c1.7,0,2.46-0.86,2.79-1.7v1.53h3v-6.09c0-3.02-1.47-4.47-4.51-4.47c-2.37,0-3.76,0.76-4.6,1.28
		l0.84,2.12c0.61-0.36,1.87-1.03,3.46-1.03c1.28,0,1.78,0.48,1.78,1.68v0.38c-4.83,0-6.51,0.8-6.51,3.02
		C35.82,167.13,37.33,168.46,39.56,168.46L39.56,168.46z M42.33,163.69v0.36c0,1.36-0.8,2.23-2.08,2.23c-0.8,0-1.36-0.55-1.36-1.32
		C38.88,164,39.75,163.69,42.33,163.69L42.33,163.69z M51.69,168.46c2.81,0,4.45-1.15,4.45-3.19c0-2.02-1.39-2.67-3.02-3.04
		l-1.74-0.4c-0.57-0.15-1.13-0.29-1.13-0.88c0-0.61,0.57-0.97,1.57-0.97c1.07,0,2.14,0.38,3.23,1.13l0.84-2.1
		c-0.84-0.61-1.78-1.28-4.05-1.28c-2.71,0-4.45,1.28-4.45,3.28c0,1.95,1.34,2.62,2.9,2.96l1.68,0.38c0.67,0.15,1.34,0.31,1.34,0.97
		c0,0.59-0.55,0.9-1.55,0.9c-2.1,0-3.04-0.65-3.88-1.2l-0.84,2.18C47.91,167.8,48.92,168.46,51.69,168.46L51.69,168.46z
		 M61.12,168.29v-10.31h-3.17v10.31H61.12L61.12,168.29z M61.25,155.98v-2.96h-3.4v2.96H61.25L61.25,155.98z M73.66,168.29v-6.21
		c0-2.92-1.2-4.35-3.65-4.35c-1.99,0-2.86,0.94-3.36,1.72v-1.47h-3.09v10.31h3.17v-5.77c0-1.43,0.82-2.31,2.18-2.31
		c1.07,0,1.57,0.63,1.57,2.02v6.07H73.66L73.66,168.29z M80.9,172.23c3.74,0,5.65-1.7,5.65-5.06v-9.2H83.4v1.45
		c-0.46-0.8-1.34-1.7-3.28-1.7c-2.79,0-4.6,1.97-4.6,5.14c0,3.15,1.78,5.12,4.6,5.12c1.95,0,2.86-0.9,3.3-1.72v1.13
		c0,1.64-0.86,2.46-2.6,2.46c-1.3,0-2.62-0.36-3.97-1.09l-0.84,2.18C77.06,171.63,78.05,172.23,80.9,172.23L80.9,172.23z
		 M81.05,160.14c1.49,0,2.35,0.99,2.35,2.73c0,1.72-0.84,2.71-2.35,2.71s-2.37-0.99-2.37-2.71
		C78.68,161.13,79.54,160.14,81.05,160.14L81.05,160.14z M92.98,168.46c2.81,0,4.45-1.15,4.45-3.19c0-2.02-1.39-2.67-3.02-3.04
		l-1.74-0.4c-0.57-0.15-1.13-0.29-1.13-0.88c0-0.61,0.57-0.97,1.57-0.97c1.07,0,2.14,0.38,3.23,1.13l0.84-2.1
		c-0.84-0.61-1.78-1.28-4.05-1.28c-2.71,0-4.45,1.28-4.45,3.28c0,1.95,1.34,2.62,2.9,2.96l1.68,0.38c0.67,0.15,1.34,0.31,1.34,0.97
		c0,0.59-0.55,0.9-1.55,0.9c-2.1,0-3.04-0.65-3.88-1.2l-0.84,2.18C89.2,167.8,90.21,168.46,92.98,168.46L92.98,168.46z
		 M104.55,168.46c0.42,0,0.82-0.04,1.22-0.08l0.17-2.31c-0.36,0.04-0.69,0.06-1.01,0.06c-1.15,0-1.72-0.61-1.72-1.85v-3.93h2.58
		v-2.37h-2.58v-3.02h-3.17v3.02h-1.95v2.37h1.95v3.95C100.04,167.13,101.48,168.46,104.55,168.46L104.55,168.46z M112.32,168.46
		c3.4,0,5.46-2.04,5.46-5.38s-2.06-5.35-5.46-5.35c-3.42,0-5.48,1.99-5.48,5.35S108.9,168.46,112.32,168.46L112.32,168.46z
		 M112.32,160.12c1.51,0,2.31,1.01,2.31,2.96c0,1.97-0.78,2.96-2.31,2.96c-1.55,0-2.33-0.99-2.33-2.96S110.77,160.12,112.32,160.12
		L112.32,160.12z M130.72,168.29l-4.58-5.38l4.33-4.91h-3.78l-3.8,4.39v-8.9h-3.17v14.8h3.17v-4.6l3.95,4.6H130.72L130.72,168.29z
		 M136.53,168.46c2.31,0,3.19-0.63,4.01-1.26l-0.84-2.12c-0.65,0.48-1.36,1.01-3.04,1.01c-1.81,0-2.5-0.92-2.67-2.35h6.72v-0.78
		c0-3.28-1.76-5.23-4.7-5.23c-3.09,0-5.08,2.1-5.08,5.38C130.93,166.48,133.01,168.46,136.53,168.46L136.53,168.46z M136.09,159.91
		c1.26,0,1.85,0.84,1.93,2.25h-4.03C134.14,160.85,134.75,159.91,136.09,159.91L136.09,159.91z"/>
</g>
</svg>
