<?xml version="1.0" encoding="utf-8"?>
<!-- Generator: Adobe Illustrator 27.7.0, SVG Export Plug-In . SVG Version: 6.00 Build 0)  -->
<svg version="1.1" id="Layer_1" xmlns="http://www.w3.org/2000/svg" xmlns:xlink="http://www.w3.org/1999/xlink" x="0px" y="0px"
	 viewBox="0 0 259.84 95" style="enable-background:new 0 0 259.84 95;" xml:space="preserve">
<style type="text/css">
	.st0{fill:#7413DC;}
</style>
<g>
	<path class="st0" d="M0,57.17l4.71-5.64c3.26,2.69,6.68,4.4,10.82,4.4c3.26,0,5.23-1.29,5.23-3.42v-0.1c0-2.02-1.24-3.05-7.3-4.61
		c-7.3-1.86-12.01-3.88-12.01-11.08v-0.1c0-6.58,5.28-10.93,12.69-10.93c5.28,0,9.79,1.66,13.46,4.61l-4.14,6.01
		c-3.21-2.23-6.37-3.57-9.42-3.57c-3.05,0-4.66,1.4-4.66,3.16V36c0,2.38,1.55,3.16,7.82,4.76c7.35,1.92,11.49,4.56,11.49,10.87v0.1
		c0,7.2-5.49,11.23-13.3,11.23C9.89,62.97,4.35,61.06,0,57.17"/>
	<path class="st0" d="M31.66,48.74v-0.11c0-7.92,6.06-14.44,14.55-14.44c5.23,0,8.49,1.76,11.08,4.66l-4.82,5.18c-1.76-1.87-3.52-3.06-6.32-3.06
		c-3.94,0-6.73,3.47-6.73,7.56v0.1c0,4.25,2.74,7.66,7.04,7.66c2.64,0,4.45-1.14,6.37-2.95L57.44,58c-2.69,2.95-5.8,5.07-11.34,5.07
		C37.76,63.08,31.66,56.66,31.66,48.74"/>
	<path class="st0" d="M81.24,48.74v-0.11c0-4.09-2.95-7.66-7.3-7.66c-4.5,0-7.2,3.47-7.2,7.56v0.1c0,4.09,2.95,7.66,7.3,7.66
		C78.55,56.3,81.24,52.83,81.24,48.74 M58.98,48.74v-0.11c0-7.97,6.42-14.44,15.07-14.44c8.6,0,14.96,6.37,14.96,14.34v0.1
		c0,7.97-6.42,14.45-15.06,14.45C65.35,63.08,58.98,56.71,58.98,48.74"/>
	<path class="st0" d="M92.08,52.67V34.71h7.87v15.48c0,3.73,1.76,5.64,4.76,5.64c3,0,4.92-1.91,4.92-5.64V34.71h7.87v27.75h-7.87v-3.93
		c-1.81,2.33-4.14,4.45-8.13,4.45C95.55,62.97,92.08,59.04,92.08,52.67"/>
	<path class="st0" d="M122.07,54.59V27.61h7.87v7.09h6.53v6.73h-6.53v11.86c0,1.81,0.78,2.69,2.54,2.69c1.45,0,2.74-0.36,3.88-0.98v6.32
		c-1.66,0.98-3.57,1.61-6.21,1.61C125.33,62.92,122.07,61.01,122.07,54.59"/>
	<path class="st0" d="M139.93,58.78l3.37-5.18c3,2.18,6.16,3.31,8.75,3.31c2.28,0,3.31-0.83,3.31-2.07v-0.1c0-1.71-2.69-2.28-5.75-3.21
		c-3.88-1.14-8.28-2.95-8.28-8.34v-0.1c0-5.64,4.56-8.8,10.15-8.8c3.52,0,7.35,1.19,10.36,3.21l-3.01,5.44
		c-2.74-1.61-5.49-2.59-7.51-2.59c-1.92,0-2.9,0.83-2.9,1.92v0.1c0,1.55,2.64,2.28,5.64,3.31c3.88,1.29,8.39,3.16,8.39,8.23v0.1
		c0,6.16-4.61,8.96-10.61,8.96C147.96,62.97,143.61,61.68,139.93,58.78"/>
	<path class="st0" d="M200.59,32.97c2.25,3.44,3.38,7.38,3.73,10.05h4.1c-0.34-3.26-1.66-8.05-4.42-12.27c-3.28-5.03-7.55-7.69-12.35-7.69h-0.03
		c-3.66,0-7.09,1.65-9.4,4.51c-2.43,3.02-3.35,6.92-2.53,10.7l3.98-0.87c-0.55-2.54,0.09-5.26,1.72-7.28c1.56-1.93,3.77-3,6.23-3
		h0.02C195.89,27.13,198.85,30.31,200.59,32.97"/>
	<path class="st0" d="M230.18,61.49c-1.59-2.21-2.75-4.85-3.27-7.39h-4.14c0.32,1.98,1.16,5.26,3.38,8.71c-1.39,2.33-3.89,4.63-6.53,6
		c0,0,0,0-0.01,0c0,0,0,0,0,0c-2.64-1.37-5.14-3.67-6.53-6c2.22-3.46,3.06-6.73,3.38-8.71h-4.14c-0.51,2.54-1.67,5.18-3.27,7.39
		l-0.69,0.96l0.49,1.08c1.73,3.77,5.72,7.55,9.93,9.41l0.82,0.36h0.01h0.01l0.82-0.36c4.21-1.86,8.2-5.64,9.93-9.41l0.49-1.08
		L230.18,61.49L230.18,61.49z"/>
	<path class="st0" d="M238.65,32.97c-2.24,3.44-3.38,7.38-3.73,10.05h-4.1c0.34-3.26,1.66-8.05,4.42-12.27c3.28-5.03,7.55-7.69,12.35-7.69h0.03
		c3.66,0,7.08,1.65,9.4,4.51c2.43,3.02,3.35,6.92,2.53,10.7l-3.98-0.87c0.55-2.54-0.09-5.26-1.72-7.28c-1.56-1.93-3.77-3-6.23-3
		h-0.02C243.35,27.13,240.39,30.31,238.65,32.97"/>
	<path class="st0" d="M212.5,43.02h4.1c-0.51-4.72-2.36-8.84-4.01-12.48c-1.64-3.64-3.19-7.07-3.17-10.5c0.03-3.94,2.28-7.95,6.01-10.74
		c0.65-0.49,2.51-1.92,4.18-3.45c1.67,1.53,3.53,2.96,4.18,3.45c3.73,2.79,5.97,6.8,6.01,10.74c0.02,3.42-1.53,6.86-3.17,10.5
		c-1.64,3.64-3.49,7.76-4.01,12.48h4.1c0.51-3.9,2.09-7.41,3.62-10.81c1.83-4.05,3.55-7.88,3.53-12.2
		c-0.05-5.21-2.9-10.42-7.64-13.97c-0.56-0.42-3.46-2.64-5.13-4.44L219.62,0l-1.49,1.61c-1.67,1.8-4.58,4.01-5.13,4.44
		c-4.73,3.54-7.59,8.76-7.64,13.97c-0.03,4.32,1.7,8.15,3.52,12.2C210.42,35.61,212,39.12,212.5,43.02"/>
	<polygon class="st0" points="196.36,50.52 242.87,50.52 242.87,46.61 196.36,46.61 196.36,50.52 	"/>
	<path class="st0" d="M7.56,91.05c3.25,0,5.17-1.51,5.17-4.05c0-2.25-1.32-3.21-2.69-3.61c1.11-0.4,2.33-1.32,2.33-3.3
		c0-2.41-1.85-3.84-5.04-3.84h-6.8v14.8H7.56L7.56,91.05z M7.19,84.77c1.7,0,2.48,0.59,2.48,1.91c0,1.3-0.78,1.87-2.48,1.87H3.7
		v-3.78H7.19L7.19,84.77z M6.81,78.75c1.68,0,2.46,0.57,2.46,1.78c0,1.18-0.82,1.74-2.46,1.74H3.7v-3.53H6.81L6.81,78.75z
		 M17.92,91.05v-5.38c0-1.6,0.92-2.27,2.41-2.39l1.78-0.19l-0.19-2.62L21,80.53c-1.64,0.1-2.69,0.76-3.21,1.95v-1.74h-3.04v10.31
		H17.92L17.92,91.05z M26.34,91.05V80.74h-3.17v10.31H26.34L26.34,91.05z M26.46,78.75v-2.96h-3.4v2.96H26.46L26.46,78.75z
		 M33.62,95c3.74,0,5.65-1.7,5.65-5.06v-9.2h-3.15v1.45c-0.46-0.8-1.34-1.7-3.28-1.7c-2.79,0-4.6,1.97-4.6,5.14
		c0,3.15,1.78,5.12,4.6,5.12c1.95,0,2.86-0.9,3.3-1.72v1.13c0,1.64-0.86,2.46-2.6,2.46c-1.3,0-2.62-0.36-3.97-1.09l-0.84,2.18
		C29.78,94.39,30.77,95,33.62,95L33.62,95z M33.77,82.9c1.49,0,2.35,0.99,2.35,2.73c0,1.72-0.84,2.71-2.35,2.71
		s-2.37-0.99-2.37-2.71C31.4,83.89,32.26,82.9,33.77,82.9L33.77,82.9z M51.83,91.05v-6.21c0-2.92-1.2-4.35-3.65-4.35
		c-1.93,0-2.77,0.88-3.28,1.62v-5.86h-3.17v14.8h3.17v-5.77c0-1.43,0.82-2.31,2.18-2.31c1.07,0,1.57,0.63,1.57,2.02v6.07H51.83
		L51.83,91.05z M59.54,91.22c0.42,0,0.82-0.04,1.22-0.08l0.17-2.31c-0.36,0.04-0.69,0.06-1.01,0.06c-1.15,0-1.72-0.61-1.72-1.85
		v-3.93h2.58v-2.37h-2.58v-3.02h-3.17v3.02h-1.95v2.37h1.95v3.95C55.02,89.89,56.47,91.22,59.54,91.22L59.54,91.22z M67.31,91.22
		c3.4,0,5.46-2.04,5.46-5.38s-2.06-5.35-5.46-5.35c-3.42,0-5.48,1.99-5.48,5.35S63.89,91.22,67.31,91.22L67.31,91.22z M67.31,82.88
		c1.51,0,2.31,1.01,2.31,2.96c0,1.97-0.78,2.96-2.31,2.96c-1.55,0-2.33-0.99-2.33-2.96S65.75,82.88,67.31,82.88L67.31,82.88z
		 M84.8,91.05v-6.21c0-2.92-1.2-4.35-3.65-4.35c-1.99,0-2.86,0.94-3.36,1.72v-1.47H74.7v10.31h3.17v-5.77
		c0-1.43,0.82-2.31,2.18-2.31c1.07,0,1.57,0.63,1.57,2.02v6.07H84.8L84.8,91.05z M106.55,91.05v-14.8h-3.21v5.98h-6.82v-5.98h-3.21
		v14.8h3.21v-6.21h6.82v6.21H106.55L106.55,91.05z M112.42,91.05V80.74h-3.17v10.31H112.42L112.42,91.05z M112.54,78.75v-2.96h-3.4
		v2.96H112.54L112.54,78.75z M118.02,91.05v-14.8h-3.17v14.8H118.02L118.02,91.05z M123.63,91.05v-14.8h-3.17v14.8H123.63
		L123.63,91.05z"/>
</g>
</svg>
