<?xml version="1.0" encoding="utf-8"?>
<!-- Generator: Adobe Illustrator 27.5.0, SVG Export Plug-In . SVG Version: 6.00 Build 0)  -->
<svg version="1.1" id="Layer_1" xmlns="http://www.w3.org/2000/svg" xmlns:xlink="http://www.w3.org/1999/xlink" x="0px" y="0px"
	 viewBox="0 0 214.1 148.8" style="enable-background:new 0 0 214.1 148.8;" xml:space="preserve">
<style type="text/css">
	.st0{fill:white;}
</style>
<g>
	<path class="st0" d="M25.4,112.7l4.7-5.6c3.3,2.7,6.7,4.4,10.8,4.4c3.3,0,5.2-1.3,5.2-3.4V108c0-2-1.2-3.1-7.3-4.6
		c-7.3-1.9-12-3.9-12-11.1v-0.1c0-6.6,5.3-10.9,12.7-10.9c5.3,0,9.8,1.7,13.5,4.6l-4.1,6c-3.2-2.2-6.4-3.6-9.4-3.6s-4.7,1.4-4.7,3.2
		v0.1c0,2.4,1.5,3.2,7.8,4.8c7.3,1.9,11.5,4.6,11.5,10.9v0.1c0,7.2-5.5,11.2-13.3,11.2C35.3,118.4,29.8,116.5,25.4,112.7"/>
	<path class="st0" d="M57.1,104.2v-0.1c0-7.9,6-14.4,14.5-14.4c5.2,0,8.5,1.8,11.1,4.7l-4.8,5.2c-1.8-1.9-3.5-3.1-6.3-3.1
		c-3.9,0-6.7,3.5-6.7,7.6v0.1c0,4.2,2.7,7.7,7,7.7c2.6,0,4.4-1.1,6.4-2.9l4.6,4.7c-2.7,2.9-5.8,5.1-11.3,5.1
		C63.2,118.5,57.1,112.1,57.1,104.2"/>
	<path class="st0" d="M84.4,104.2v-0.1c0-8,6.4-14.4,15.1-14.4c8.6,0,14.9,6.4,14.9,14.3v0.1c0,8-6.4,14.4-15.1,14.4
		C90.8,118.5,84.4,112.2,84.4,104.2 M106.6,104.2v-0.1c0-4.1-2.9-7.7-7.3-7.7c-4.5,0-7.2,3.5-7.2,7.6v0.1c0,4.1,2.9,7.7,7.3,7.7
		C103.9,111.8,106.6,108.3,106.6,104.2"/>
	<path class="st0" d="M117.5,108.1v-18h7.9v15.5c0,3.7,1.8,5.6,4.8,5.6s4.9-1.9,4.9-5.6V90.1h7.9v27.7h-7.9v-3.9
		c-1.8,2.3-4.1,4.4-8.1,4.4C120.9,118.4,117.5,114.5,117.5,108.1"/>
	<path class="st0" d="M147.5,110.1v-27h7.9v7.1h6.5v6.7h-6.5v11.8c0,1.8,0.8,2.7,2.5,2.7c1.4,0,2.7-0.4,3.9-1v6.3
		c-1.7,1-3.6,1.6-6.2,1.6C150.7,118.4,147.5,116.5,147.5,110.1"/>
	<path class="st0" d="M165.3,114.2l3.4-5.2c3,2.2,6.2,3.3,8.7,3.3c2.3,0,3.3-0.8,3.3-2.1v-0.1c0-1.7-2.7-2.3-5.8-3.2
		c-3.9-1.1-8.3-2.9-8.3-8.3v-0.1c0-5.6,4.6-8.8,10.1-8.8c3.5,0,7.4,1.2,10.4,3.2l-3,5.4c-2.7-1.6-5.5-2.6-7.5-2.6
		c-1.9,0-2.9,0.8-2.9,1.9v0.1c0,1.6,2.6,2.3,5.6,3.3c3.9,1.3,8.4,3.2,8.4,8.2v0.1c0,6.2-4.6,8.9-10.6,8.9
		C173.3,118.4,169,117.2,165.3,114.2"/>
	<path class="st0" d="M87.6,32.9c2.2,3.4,3.4,7.4,3.7,10h4.1c-0.3-3.3-1.7-8-4.4-12.3c-3.3-5-7.6-7.7-12.3-7.7l0,0
		c-3.7,0-7.1,1.6-9.4,4.5c-2.4,3-3.3,6.9-2.5,10.7l4-0.9c-0.6-2.5,0.1-5.2,1.7-7.3c1.6-1.9,3.8-3,6.2-3l0,0
		C82.9,27.1,85.9,30.3,87.6,32.9L87.6,32.9z"/>
	<path class="st0" d="M117.2,61.4c-1.6-2.2-2.8-4.8-3.3-7.4h-4.1c0.3,2,1.2,5.3,3.4,8.7c-1.4,2.3-3.9,4.6-6.5,6l0,0l0,0
		c-2.6-1.4-5.1-3.7-6.5-6c2.2-3.4,3.1-6.7,3.4-8.7h-4.1c-0.5,2.5-1.7,5.2-3.3,7.4l-0.7,1l0.5,1.1c1.7,3.8,5.7,7.6,9.9,9.4l0.8,0.4
		l0,0l0,0l0.8-0.4c4.2-1.9,8.2-5.6,9.9-9.4l0.5-1.1L117.2,61.4L117.2,61.4z"/>
	<path class="st0" d="M125.6,32.9c-2.2,3.4-3.4,7.4-3.7,10h-4.1c0.3-3.3,1.7-8,4.4-12.3c3.3-5,7.6-7.7,12.3-7.7l0,0
		c3.7,0,7.1,1.6,9.4,4.5c2.4,3,3.4,6.9,2.5,10.7l-4-0.9c0.6-2.5-0.1-5.2-1.7-7.3c-1.6-1.9-3.8-3-6.2-3l0,0
		C130.3,27.1,127.4,30.3,125.6,32.9L125.6,32.9z"/>
	<path class="st0" d="M99.5,43h4.1c-0.5-4.7-2.4-8.8-4-12.5c-1.6-3.6-3.2-7.1-3.2-10.5c0-3.9,2.3-8,6-10.7c0.7-0.5,2.5-1.9,4.2-3.5
		c1.7,1.5,3.5,3,4.2,3.5c3.7,2.8,6,6.8,6,10.7c0,3.4-1.5,6.9-3.2,10.5c-1.6,3.6-3.5,7.8-4,12.5h4.1c0.5-3.9,2.1-7.4,3.6-10.8
		c1.8-4,3.6-7.9,3.5-12.2c-0.1-5.2-2.9-10.4-7.6-14c-0.6-0.4-3.5-2.6-5.1-4.4L106.6,0l-1.5,1.6c-1.7,1.8-4.6,4-5.1,4.4
		c-4.7,3.5-7.6,8.8-7.6,14c0,4.3,1.7,8.1,3.5,12.2C97.4,35.6,99,39.1,99.5,43L99.5,43z"/>
	<path class="st0" d="M83.4,46.6v3.9h46.5v-3.9H83.4z"/>
	<path class="st0" d="M6.5,145.2c3,0,4.7-1.4,4.7-3.7c0-2.1-1.2-2.9-2.4-3.3c1-0.4,2.1-1.2,2.1-3c0-2.2-1.7-3.5-4.6-3.5H0v13.5H6.5
		L6.5,145.2z M6.1,139.4c1.6,0,2.3,0.5,2.3,1.7s-0.7,1.7-2.3,1.7H2.9v-3.4H6.1L6.1,139.4z M5.8,133.9c1.5,0,2.2,0.5,2.2,1.6
		s-0.8,1.6-2.2,1.6H2.9v-3.2L5.8,133.9L5.8,133.9z M15.3,145.2v-4.9c0-1.5,0.8-2.1,2.2-2.2l1.6-0.2l-0.2-2.4l-0.8,0.1
		c-1.5,0.1-2.5,0.7-2.9,1.8v-1.6h-2.8v9.4L15.3,145.2L15.3,145.2z M22.4,145.2v-9.4h-2.9v9.4H22.4L22.4,145.2z M22.6,133.9v-2.7
		h-3.1v2.7H22.6L22.6,133.9z M28.5,148.8c3.4,0,5.2-1.6,5.2-4.6v-8.4h-2.9v1.3c-0.4-0.7-1.2-1.6-3-1.6c-2.5,0-4.2,1.8-4.2,4.7
		s1.6,4.7,4.2,4.7c1.8,0,2.6-0.8,3-1.6v1c0,1.5-0.8,2.2-2.4,2.2c-1.2,0-2.4-0.3-3.6-1l-0.8,2C25,148.2,25.9,148.8,28.5,148.8
		L28.5,148.8z M28.7,137.7c1.4,0,2.2,0.9,2.2,2.5s-0.8,2.5-2.1,2.5s-2.2-0.9-2.2-2.5C26.5,138.6,27.3,137.7,28.7,137.7L28.7,137.7z
		 M44.5,145.2v-5.7c0-2.7-1.1-4-3.3-4c-1.8,0-2.5,0.8-3,1.5v-5.4h-2.9v13.5h2.9v-5.3c0-1.3,0.8-2.1,2-2.1c1,0,1.4,0.6,1.4,1.8v5.5
		L44.5,145.2L44.5,145.2z M51,145.3c0.4,0,0.8,0,1.1-0.1l0.2-2.1c-0.3,0-0.6,0.1-0.9,0.1c-1,0-1.6-0.6-1.6-1.7v-3.6h2.4v-2.2h-2.4
		v-2.8h-2.9v2.8h-1.8v2.2h1.8v3.6C46.9,144.1,48.2,145.3,51,145.3L51,145.3z M57.5,145.3c3.1,0,5-1.9,5-4.9s-1.9-4.9-5-4.9
		s-5,1.8-5,4.9S54.4,145.3,57.5,145.3L57.5,145.3z M57.5,137.7c1.4,0,2.1,0.9,2.1,2.7s-0.7,2.7-2.1,2.7c-1.4,0-2.1-0.9-2.1-2.7
		S56.1,137.7,57.5,137.7L57.5,137.7z M72.9,145.2v-5.7c0-2.7-1.1-4-3.3-4c-1.8,0-2.6,0.9-3.1,1.6v-1.3h-2.8v9.4h2.9v-5.3
		c0-1.3,0.8-2.1,2-2.1c1,0,1.4,0.6,1.4,1.8v5.5h2.9C72.9,145.1,72.9,145.2,72.9,145.2z"/>
	<path class="st0" d="M91.3,145.2v-13.5h-2.9v5.4h-6.2v-5.4h-3v13.5h3v-5.7h6.2v5.7H91.3z"/>
	<path class="st0" d="M96.1,145.2v-9.4h-2.9v9.4H96.1L96.1,145.2z M96.2,133.9v-2.7h-3.1v2.7H96.2L96.2,133.9z M100.6,145.2v-13.5
		h-2.9v13.5H100.6L100.6,145.2z M105.2,145.2v-13.5h-2.9v13.5H105.2L105.2,145.2z"/>
	<path class="st0" d="M118,145.2c3,0,4.7-1.4,4.7-3.7c0-2.1-1.2-2.9-2.4-3.3c1-0.4,2.1-1.2,2.1-3c0-2.2-1.7-3.5-4.6-3.5h-6.2v13.5
		H118L118,145.2z M117.6,139.4c1.6,0,2.3,0.5,2.3,1.7s-0.7,1.7-2.3,1.7h-3.2v-3.4H117.6L117.6,139.4z M117.3,133.9
		c1.5,0,2.2,0.5,2.2,1.6s-0.8,1.6-2.2,1.6h-2.8v-3.2L117.3,133.9L117.3,133.9z M127,145.3c1.6,0,2.2-0.8,2.6-1.6v1.4h2.7v-5.6
		c0-2.8-1.3-4.1-4.1-4.1c-2.2,0-3.4,0.7-4.2,1.2l0.8,1.9c0.6-0.3,1.7-0.9,3.2-0.9c1.2,0,1.6,0.4,1.6,1.5v0.3c-4.4,0-5.9,0.7-5.9,2.8
		C123.6,144.1,124.9,145.3,127,145.3L127,145.3z M129.5,141v0.3c0,1.2-0.7,2-1.9,2c-0.7,0-1.2-0.5-1.2-1.2
		C126.4,141.2,127.1,141,129.5,141L129.5,141z M137.5,145.3c2.6,0,4.1-1.1,4.1-2.9c0-1.8-1.3-2.4-2.8-2.8l-1.6-0.4
		c-0.5-0.1-1-0.3-1-0.8c0-0.6,0.5-0.9,1.4-0.9c1,0,1.9,0.3,2.9,1l0.8-1.9c-0.8-0.6-1.6-1.2-3.7-1.2c-2.5,0-4.1,1.2-4.1,3
		s1.2,2.4,2.6,2.7l1.5,0.3c0.6,0.1,1.2,0.3,1.2,0.9c0,0.5-0.5,0.8-1.4,0.8c-1.9,0-2.8-0.6-3.6-1.1l-0.8,2
		C134,144.7,134.9,145.3,137.5,145.3L137.5,145.3z M145.5,145.2v-9.4h-2.9v9.4H145.5L145.5,145.2z M145.6,133.9v-2.7h-3.1v2.7H145.6
		L145.6,133.9z M156.4,145.2v-5.7c0-2.7-1.1-4-3.3-4c-1.8,0-2.6,0.9-3.1,1.6v-1.3h-2.8v9.4h2.9v-5.3c0-1.3,0.8-2.1,2-2.1
		c1,0,1.4,0.6,1.4,1.8v5.5h2.9L156.4,145.2L156.4,145.2z M162.4,148.8c3.4,0,5.2-1.6,5.2-4.6v-8.4h-2.9v1.3c-0.4-0.7-1.2-1.6-3-1.6
		c-2.6,0-4.2,1.8-4.2,4.7s1.6,4.7,4.2,4.7c1.8,0,2.6-0.8,3-1.6v1c0,1.5-0.8,2.2-2.4,2.2c-1.2,0-2.4-0.3-3.6-1l-0.8,2
		C158.9,148.2,159.8,148.8,162.4,148.8L162.4,148.8z M162.5,137.7c1.4,0,2.1,0.9,2.1,2.5s-0.8,2.5-2.1,2.5s-2.2-0.9-2.2-2.5
		C160.4,138.6,161.1,137.7,162.5,137.7L162.5,137.7z M172.8,145.3c2.6,0,4.1-1.1,4.1-2.9c0-1.8-1.3-2.4-2.8-2.8l-1.6-0.4
		c-0.5-0.1-1-0.3-1-0.8c0-0.6,0.5-0.9,1.4-0.9c1,0,1.9,0.3,2.9,1l0.8-1.9c-0.8-0.6-1.6-1.2-3.7-1.2c-2.5,0-4.1,1.2-4.1,3
		s1.2,2.4,2.6,2.7l1.5,0.3c0.6,0.1,1.2,0.3,1.2,0.9c0,0.5-0.5,0.8-1.4,0.8c-1.9,0-2.8-0.6-3.6-1.1l-0.8,2
		C169.4,144.7,170.3,145.3,172.8,145.3L172.8,145.3z M182.8,145.3c0.4,0,0.8,0,1.1-0.1l0.1-2.1c-0.3,0-0.6,0.1-0.9,0.1
		c-1.1,0-1.6-0.6-1.6-1.7v-3.6h2.4v-2.2h-2.4v-2.8h-2.8v2.8h-1.8v2.2h1.8v3.6C178.7,144.1,180,145.3,182.8,145.3L182.8,145.3z
		 M189.3,145.3c3.1,0,5-1.9,5-4.9s-1.9-4.9-5-4.9s-5,1.8-5,4.9S186.2,145.3,189.3,145.3L189.3,145.3z M189.3,137.7
		c1.4,0,2.1,0.9,2.1,2.7s-0.7,2.7-2.1,2.7c-1.4,0-2.1-0.9-2.1-2.7S187.9,137.7,189.3,137.7L189.3,137.7z M205.5,145.2l-4.2-4.9
		l3.9-4.5h-3.4l-3.5,4v-8.1h-2.9v13.5h2.9V141l3.6,4.2H205.5L205.5,145.2z"/>
	<path class="st0" d="M210.3,145.3c2.1,0,2.9-0.6,3.7-1.1l-0.8-1.9c-0.6,0.4-1.2,0.9-2.8,0.9s-2.3-0.8-2.4-2.1h6.1v-0.8
		c0-3-1.6-4.8-4.3-4.8c-2.8,0-4.6,1.9-4.6,4.9C205.1,143.5,207,145.3,210.3,145.3L210.3,145.3z M209.9,137.5c1.1,0,1.7,0.8,1.8,2.1
		H208C208.1,138.4,208.6,137.5,209.9,137.5L209.9,137.5z"/>
</g>
</svg>
