<?xml version="1.0" encoding="utf-8"?>
<!-- Generator: Adobe Illustrator 27.5.0, SVG Export Plug-In . SVG Version: 6.00 Build 0)  -->
<svg version="1.1" id="Layer_1" xmlns="http://www.w3.org/2000/svg" xmlns:xlink="http://www.w3.org/1999/xlink" x="0px" y="0px"
	 viewBox="0 0 259.8 111.6" style="enable-background:new 0 0 259.8 111.6;" xml:space="preserve">
<style type="text/css">
	.st0{fill:white;}
</style>
<g>
	<path class="st0" d="M0,57.2l4.7-5.6c3.3,2.7,6.7,4.4,10.8,4.4c3.3,0,5.2-1.3,5.2-3.4v-0.1c0-2-1.2-3-7.3-4.6
		c-7.3-1.9-12-3.9-12-11.1v-0.1c0-6.6,5.3-10.9,12.7-10.9c5.3,0,9.8,1.7,13.5,4.6l-4.1,6c-3.2-2.2-6.4-3.6-9.4-3.6s-4.7,1.4-4.7,3.2
		V36c0,2.4,1.6,3.2,7.8,4.8c7.4,1.9,11.5,4.6,11.5,10.9v0.1c0,7.2-5.5,11.2-13.3,11.2C9.9,63,4.3,61.1,0,57.2"/>
	<path class="st0" d="M31.7,48.7v-0.1c0-7.9,6.1-14.4,14.5-14.4c5.2,0,8.5,1.8,11.1,4.7L52.5,44C50.7,42.2,49,41,46.2,41
		c-3.9,0-6.7,3.5-6.7,7.6v0.1c0,4.2,2.7,7.7,7,7.7c2.6,0,4.5-1.1,6.4-3l4.6,4.7c-2.7,3-5.8,5.1-11.3,5.1
		C37.8,63.1,31.7,56.7,31.7,48.7"/>
	<path class="st0" d="M81.2,48.7v-0.1c0-4.1-2.9-7.7-7.3-7.7c-4.5,0-7.2,3.5-7.2,7.6v0.1c0,4.1,2.9,7.7,7.3,7.7
		C78.6,56.3,81.2,52.8,81.2,48.7 M59,48.7v-0.1c0-8,6.4-14.4,15.1-14.4c8.6,0,15,6.4,15,14.3v0.1c0,8-6.4,14.5-15.1,14.5
		C65.3,63.1,59,56.7,59,48.7"/>
	<path class="st0" d="M92.1,52.7v-18h7.9v15.5c0,3.7,1.8,5.6,4.8,5.6s4.9-1.9,4.9-5.6V34.7h7.9v27.8h-7.9v-3.9
		c-1.8,2.3-4.1,4.5-8.1,4.5C95.6,63,92.1,59,92.1,52.7"/>
	<path class="st0" d="M122.1,54.6v-27h7.9v7.1h6.5v6.7h-6.5v11.9c0,1.8,0.8,2.7,2.5,2.7c1.4,0,2.7-0.4,3.9-1v6.3
		c-1.7,1-3.6,1.6-6.2,1.6C125.3,62.9,122.1,61,122.1,54.6"/>
	<path class="st0" d="M139.9,58.8l3.4-5.2c3,2.2,6.2,3.3,8.8,3.3c2.3,0,3.3-0.8,3.3-2.1v-0.1c0-1.7-2.7-2.3-5.8-3.2
		c-3.9-1.1-8.3-3-8.3-8.3v-0.1c0-5.6,4.6-8.8,10.1-8.8c3.5,0,7.4,1.2,10.4,3.2l-3,5.4c-2.7-1.6-5.5-2.6-7.5-2.6
		c-1.9,0-2.9,0.8-2.9,1.9v0.1c0,1.5,2.6,2.3,5.6,3.3c3.9,1.3,8.4,3.2,8.4,8.2V54c0,6.2-4.6,9-10.6,9C148,63,143.6,61.7,139.9,58.8"
		/>
	<path class="st0" d="M200.6,33c2.2,3.4,3.4,7.4,3.7,10h4.1c-0.3-3.3-1.7-8-4.4-12.3c-3.3-5-7.6-7.7-12.4-7.7h0
		c-3.7,0-7.1,1.6-9.4,4.5c-2.4,3-3.4,6.9-2.5,10.7l4-0.9c-0.6-2.5,0.1-5.3,1.7-7.3c1.6-1.9,3.8-3,6.2-3h0
		C195.9,27.1,198.9,30.3,200.6,33"/>
	<path class="st0" d="M230.2,61.5c-1.6-2.2-2.8-4.8-3.3-7.4h-4.1c0.3,2,1.2,5.3,3.4,8.7c-1.4,2.3-3.9,4.6-6.5,6c0,0,0,0,0,0l0,0
		c-2.6-1.4-5.1-3.7-6.5-6c2.2-3.5,3.1-6.7,3.4-8.7h-4.1c-0.5,2.5-1.7,5.2-3.3,7.4l-0.7,1l0.5,1.1c1.7,3.8,5.7,7.6,9.9,9.4l0.8,0.4h0
		h0l0.8-0.4c4.2-1.9,8.2-5.6,9.9-9.4l0.5-1.1L230.2,61.5L230.2,61.5z"/>
	<path class="st0" d="M238.6,33c-2.2,3.4-3.4,7.4-3.7,10h-4.1c0.3-3.3,1.7-8,4.4-12.3c3.3-5,7.6-7.7,12.4-7.7h0
		c3.7,0,7.1,1.6,9.4,4.5c2.4,3,3.4,6.9,2.5,10.7l-4-0.9c0.6-2.5-0.1-5.3-1.7-7.3c-1.6-1.9-3.8-3-6.2-3h0
		C243.4,27.1,240.4,30.3,238.6,33"/>
	<path class="st0" d="M212.5,43h4.1c-0.5-4.7-2.4-8.8-4-12.5c-1.6-3.6-3.2-7.1-3.2-10.5c0-3.9,2.3-7.9,6-10.7
		c0.6-0.5,2.5-1.9,4.2-3.4c1.7,1.5,3.5,3,4.2,3.4c3.7,2.8,6,6.8,6,10.7c0,3.4-1.5,6.9-3.2,10.5s-3.5,7.8-4,12.5h4.1
		c0.5-3.9,2.1-7.4,3.6-10.8c1.8-4,3.6-7.9,3.5-12.2c-0.1-5.2-2.9-10.4-7.6-14c-0.6-0.4-3.5-2.6-5.1-4.4L219.6,0l-1.5,1.6
		c-1.7,1.8-4.6,4-5.1,4.4c-4.7,3.5-7.6,8.8-7.6,14c0,4.3,1.7,8.1,3.5,12.2C210.4,35.6,212,39.1,212.5,43"/>
	<polygon class="st0" points="196.4,50.5 242.9,50.5 242.9,46.6 196.4,46.6 	"/>
	<path class="st0" d="M6.7,88.9c2.9,0,4.7-1.4,4.7-3.7c0-2-1.2-2.9-2.4-3.2c1-0.4,2.1-1.2,2.1-3c0-2.2-1.7-3.5-4.5-3.5H0.4v13.3H6.7
		L6.7,88.9z M6.4,83.3c1.5,0,2.2,0.5,2.2,1.7c0,1.2-0.7,1.7-2.2,1.7H3.2v-3.4H6.4L6.4,83.3z M6,77.8c1.5,0,2.2,0.5,2.2,1.6
		C8.2,80.5,7.5,81,6,81H3.2v-3.2H6L6,77.8z M15.5,88.9v-4.8c0-1.4,0.8-2,2.2-2.2l1.6-0.2l-0.2-2.4l-0.8,0.1
		c-1.5,0.1-2.4,0.7-2.9,1.8v-1.6h-2.7v9.3L15.5,88.9L15.5,88.9z M22.5,88.9v-9.3h-2.9v9.3H22.5L22.5,88.9z M22.6,77.8v-2.7h-3.1v2.7
		H22.6L22.6,77.8z M28.5,92.5c3.4,0,5.1-1.5,5.1-4.6v-8.3h-2.8v1.3c-0.4-0.7-1.2-1.5-3-1.5c-2.5,0-4.1,1.8-4.1,4.6
		c0,2.8,1.6,4.6,4.1,4.6c1.8,0,2.6-0.8,3-1.6v1c0,1.5-0.8,2.2-2.3,2.2c-1.2,0-2.4-0.3-3.6-1l-0.8,2C25,91.9,25.9,92.5,28.5,92.5
		L28.5,92.5z M28.6,81.6c1.3,0,2.1,0.9,2.1,2.5c0,1.6-0.8,2.4-2.1,2.4s-2.1-0.9-2.1-2.4C26.5,82.5,27.2,81.6,28.6,81.6L28.6,81.6z
		 M44.3,88.9v-5.6c0-2.6-1.1-3.9-3.3-3.9c-1.7,0-2.5,0.8-3,1.5v-5.3h-2.8v13.3H38v-5.2c0-1.3,0.7-2.1,2-2.1c1,0,1.4,0.6,1.4,1.8v5.5
		L44.3,88.9L44.3,88.9z M50.7,89.1c0.4,0,0.7,0,1.1-0.1l0.2-2.1C51.6,87,51.3,87,51,87c-1,0-1.5-0.6-1.5-1.7v-3.5h2.3v-2.1h-2.3
		v-2.7h-2.8v2.7h-1.8v2.1h1.8v3.6C46.6,87.9,47.9,89.1,50.7,89.1L50.7,89.1z M57.1,89.1c3.1,0,4.9-1.8,4.9-4.8s-1.8-4.8-4.9-4.8
		c-3.1,0-4.9,1.8-4.9,4.8S54,89.1,57.1,89.1L57.1,89.1z M57.1,81.6c1.4,0,2.1,0.9,2.1,2.7c0,1.8-0.7,2.7-2.1,2.7
		c-1.4,0-2.1-0.9-2.1-2.7S55.7,81.6,57.1,81.6L57.1,81.6z M72.3,88.9v-5.6c0-2.6-1.1-3.9-3.3-3.9c-1.8,0-2.6,0.8-3,1.6v-1.3h-2.8
		v9.3H66v-5.2c0-1.3,0.7-2.1,2-2.1c1,0,1.4,0.6,1.4,1.8v5.5L72.3,88.9L72.3,88.9z M90.7,88.9V75.6h-2.9V81h-6.1v-5.4h-2.9v13.3h2.9
		v-5.6h6.1v5.6H90.7L90.7,88.9z M95.4,88.9v-9.3h-2.8v9.3H95.4L95.4,88.9z M95.5,77.8v-2.7h-3.1v2.7H95.5L95.5,77.8z M99.9,88.9
		V75.6H97v13.3H99.9L99.9,88.9z M104.4,88.9V75.6h-2.8v13.3H104.4L104.4,88.9z"/>
	<path class="st0" d="M6.7,108c2.9,0,4.7-1.4,4.7-3.7c0-2-1.2-2.9-2.4-3.2c1-0.4,2.1-1.2,2.1-3c0-2.2-1.7-3.5-4.5-3.5H0.4V108H6.7
		L6.7,108z M6.4,102.4c1.5,0,2.2,0.5,2.2,1.7c0,1.2-0.7,1.7-2.2,1.7H3.2v-3.4H6.4L6.4,102.4z M6,97c1.5,0,2.2,0.5,2.2,1.6
		c0,1.1-0.7,1.6-2.2,1.6H3.2V97H6L6,97z M15.6,108.2c1.5,0,2.2-0.8,2.5-1.5v1.4h2.7v-5.5c0-2.7-1.3-4-4.1-4c-2.1,0-3.4,0.7-4.1,1.2
		l0.8,1.9c0.6-0.3,1.7-0.9,3.1-0.9c1.1,0,1.6,0.4,1.6,1.5v0.3c-4.4,0-5.9,0.7-5.9,2.7C12.2,107,13.6,108.2,15.6,108.2L15.6,108.2z
		 M18.1,103.9v0.3c0,1.2-0.7,2-1.9,2c-0.7,0-1.2-0.5-1.2-1.2C15,104.2,15.8,103.9,18.1,103.9L18.1,103.9z M25.9,108.2
		c2.5,0,4-1,4-2.9c0-1.8-1.2-2.4-2.7-2.7l-1.6-0.4c-0.5-0.1-1-0.3-1-0.8c0-0.6,0.5-0.9,1.4-0.9c1,0,1.9,0.3,2.9,1l0.8-1.9
		c-0.8-0.6-1.6-1.2-3.6-1.2c-2.4,0-4,1.2-4,2.9c0,1.8,1.2,2.4,2.6,2.7l1.5,0.3c0.6,0.1,1.2,0.3,1.2,0.9c0,0.5-0.5,0.8-1.4,0.8
		c-1.9,0-2.7-0.6-3.5-1.1l-0.8,2C22.5,107.6,23.4,108.2,25.9,108.2L25.9,108.2z M33.9,108v-9.3H31v9.3H33.9L33.9,108z M34,97v-2.7
		h-3.1V97L34,97L34,97z M44.6,108v-5.6c0-2.6-1.1-3.9-3.3-3.9c-1.8,0-2.6,0.8-3,1.6v-1.3h-2.8v9.3h2.8v-5.2c0-1.3,0.7-2.1,2-2.1
		c1,0,1.4,0.6,1.4,1.8v5.5L44.6,108L44.6,108z M50.5,111.6c3.4,0,5.1-1.5,5.1-4.6v-8.3h-2.8v1.3c-0.4-0.7-1.2-1.5-3-1.5
		c-2.5,0-4.1,1.8-4.1,4.6c0,2.8,1.6,4.6,4.1,4.6c1.8,0,2.6-0.8,3-1.6v1c0,1.5-0.8,2.2-2.3,2.2c-1.2,0-2.4-0.3-3.6-1l-0.8,2
		C47.1,111.1,48,111.6,50.5,111.6L50.5,111.6z M50.7,100.7c1.3,0,2.1,0.9,2.1,2.5c0,1.6-0.8,2.4-2.1,2.4s-2.1-0.9-2.1-2.4
		C48.5,101.6,49.3,100.7,50.7,100.7L50.7,100.7z M60.8,108.2c2.5,0,4-1,4-2.9c0-1.8-1.2-2.4-2.7-2.7l-1.6-0.4c-0.5-0.1-1-0.3-1-0.8
		c0-0.6,0.5-0.9,1.4-0.9c1,0,1.9,0.3,2.9,1l0.8-1.9c-0.8-0.6-1.6-1.2-3.7-1.2c-2.4,0-4,1.2-4,2.9c0,1.8,1.2,2.4,2.6,2.7l1.5,0.3
		c0.6,0.1,1.2,0.3,1.2,0.9c0,0.5-0.5,0.8-1.4,0.8c-1.9,0-2.7-0.6-3.5-1.1l-0.8,2C57.4,107.6,58.3,108.2,60.8,108.2L60.8,108.2z
		 M70.7,108.2c0.4,0,0.7,0,1.1-0.1l0.2-2.1c-0.3,0-0.6,0.1-0.9,0.1c-1,0-1.6-0.6-1.6-1.7v-3.5h2.3v-2.1h-2.3V96h-2.8v2.7h-1.8v2.1
		h1.8v3.6C66.6,107,67.9,108.2,70.7,108.2L70.7,108.2z M77.1,108.2c3.1,0,4.9-1.8,4.9-4.8s-1.8-4.8-4.9-4.8c-3.1,0-4.9,1.8-4.9,4.8
		S74,108.2,77.1,108.2L77.1,108.2z M77.1,100.7c1.4,0,2.1,0.9,2.1,2.7c0,1.8-0.7,2.7-2.1,2.7c-1.4,0-2.1-0.9-2.1-2.7
		S75.7,100.7,77.1,100.7L77.1,100.7z M93.1,108l-4.1-4.8l3.9-4.4h-3.4l-3.4,3.9v-8h-2.8V108H86v-4.1l3.6,4.1L93.1,108L93.1,108z
		 M97.8,108.2c2.1,0,2.9-0.6,3.6-1.1l-0.8-1.9c-0.6,0.4-1.2,0.9-2.7,0.9c-1.6,0-2.2-0.8-2.4-2.1h6.1v-0.7c0-2.9-1.6-4.7-4.2-4.7
		c-2.8,0-4.6,1.9-4.6,4.8C92.7,106.4,94.6,108.2,97.8,108.2L97.8,108.2z M97.4,100.5c1.1,0,1.7,0.8,1.7,2h-3.6
		C95.6,101.3,96.2,100.5,97.4,100.5L97.4,100.5z"/>
</g>
</svg>
