<?xml version="1.0" encoding="utf-8"?>
<!-- Generator: Adobe Illustrator 27.5.0, SVG Export Plug-In . SVG Version: 6.00 Build 0)  -->
<svg version="1.1" id="Layer_1" xmlns="http://www.w3.org/2000/svg" xmlns:xlink="http://www.w3.org/1999/xlink" x="0px" y="0px"
	 viewBox="0 0 288.78 52.88" style="enable-background:new 0 0 288.78 52.88;" xml:space="preserve">
<style type="text/css">
	.st0{fill:black;}
</style>
<path class="st0" d="M178.42,52.88l-10.35-0.27c-9.81,0-17.81-6.68-17.81-19.93V3.34c0-1.62,0.61-2.33,2.23-2.33h12.44
	c1.62,0,2.23,0.71,2.23,2.33v23.07c0,4.45,1.59,8.79,6.24,8.79c4.35,0,5.95-4.07,5.95-8.53V3.61c0-1.62,0.61-2.33,2.23-2.33h12.44
	c1.62,0,2.23,0.71,2.23,2.33v29.34c0,13.25-7.99,19.93-17.81,19.93 M73.42,35.51c-5.16,0-8.9-4.15-8.9-9.31
	c0-5.16,3.74-9.11,8.9-9.11c2.73,0,4.45,0.91,6.17,2.53c1.62,1.62,2.93,1.52,4.65,0.2l10.12-7.59c0.61-0.5,1.01-1.62,0.3-2.43
	C88.8,2.53,80.71,0,73.42,0C58.75,0,46.81,10.12,46.81,26.3s11.94,26.3,26.61,26.3c7.28,0,15.38-2.53,21.25-9.81
	c0.71-0.81,0.3-1.92-0.3-2.43l-10.12-7.59c-1.72-1.31-3.04-1.42-4.65,0.2C77.87,34.6,76.15,35.51,73.42,35.51 M120.67,0
	C106,0,94.06,10.12,94.06,26.3s11.94,26.3,26.61,26.3s26.61-10.12,26.61-26.3S135.34,0,120.67,0 M120.67,35.51
	c-5.16,0-8.9-4.05-8.9-9.21c0-5.16,3.74-9.21,8.9-9.21c5.16,0,8.9,4.05,8.9,9.21C129.57,31.46,125.83,35.51,120.67,35.51
	 M207.63,1.01h-5.97c-1.72,0-2.33,0.61-2.33,2.23v12.44c0,1.62,0.71,2.23,2.33,2.23h8.53c1.62,0,2.02,0.41,2.02,2.02v30.62
	c0,1.62,0.61,2.33,2.23,2.33h12.44c1.62,0,2.22-0.71,2.22-2.33V19.93c0-1.62,0.41-2.02,2.03-2.02h8.47c1.62,0,2.33-0.61,2.33-2.23
	V3.24c0-1.62-0.71-2.23-2.33-2.23h-11.03"/>
<path class="st0" d="M266.7,52.88c12.79,0,22.09-6.5,22.09-16.99c0-10.59-7.79-14.29-17.89-15.89c-5-0.8-9-0.5-9-2.8
	c0-1.2,1.3-2.1,4.3-2.1c3.3,0,6.9,1.4,10.79,3.2c1.8,1,2.7,0.5,3.4-0.6l5.3-9.39c0.6-1.2,0.3-2.3-0.6-2.8
	c-5.8-3.3-11.59-4.6-18.99-4.6c-11.19,0-21.39,6.3-21.39,16.49c0,10.89,7.99,15.19,19.89,16.89c5.1,0.7,6.7,1.2,6.7,2.7
	c0,1.5-2,2.2-4.7,2.2c-4.3,0-9.59-1.8-13.79-4.3c-1.8-1.1-2.7-0.8-3.4,0.3l-4.8,8.89c-0.6,1.2-0.6,2.1,0.6,2.8
	C250.8,50.68,258.9,52.88,266.7,52.88"/>
<path class="st0" d="M22.87,52.88c13.02,0,22.47-6.61,22.47-17.29c0-10.78-7.93-14.54-18.2-16.17c-5.08-0.81-9.15-0.51-9.15-2.85
	c0-1.22,1.32-2.14,4.37-2.14c3.35,0,7.02,1.42,10.98,3.25c1.83,1.02,2.75,0.51,3.46-0.61l5.39-9.56c0.61-1.22,0.31-2.34-0.61-2.85
	C35.69,1.32,29.79,0,22.26,0C10.87,0,0.5,6.41,0.5,16.78c0,11.08,8.13,15.46,20.24,17.18c5.19,0.71,6.81,1.22,6.81,2.75
	c0,1.53-2.03,2.24-4.78,2.24c-4.37,0-9.76-1.83-14.03-4.37c-1.83-1.12-2.75-0.81-3.46,0.3L0.4,43.93c-0.61,1.22-0.61,2.14,0.61,2.85
	C6.71,50.64,14.94,52.88,22.87,52.88"/>
</svg>
