<?xml version="1.0" encoding="utf-8"?>
<!-- Generator: Adobe Illustrator 27.5.0, SVG Export Plug-In . SVG Version: 6.00 Build 0)  -->
<svg version="1.1" id="Layer_1" xmlns="http://www.w3.org/2000/svg" xmlns:xlink="http://www.w3.org/1999/xlink" x="0px" y="0px"
	 viewBox="0 0 744.3 168.88" style="enable-background:new 0 0 744.3 168.88;" xml:space="preserve">
<style type="text/css">
	.st0{fill:black;}
</style>
<g>
	<path d="M353.1,0c-12.65,0-18.87,7.68-18.87,16.62c0,9.36,6.54,16.79,18.87,16.79c12.7,0,18.87-7.85,18.87-16.79
		C371.96,8.92,366.82,0,353.1,0z"/>
	<path d="M431.57,41.21c-11.76,0-19.12,10.69-21.32,15.37l-4.52-2.13c0.98-2.07,2.69-5.17,5.33-8.24c-3.17-3.22-7.93-5-13.25-5
		c-9.55,0-17.3,5.7-17.3,15.25v61.88c0,9.55,7.74,15.25,17.3,15.25s17.3-5.7,17.3-15.25V80.83c0-5,1.52-7.91,3.69-9.27
		c2.65,5.9,6.3,9.35,14.35,9.35c9.67,0,17.6-7.83,17.6-19.54C450.74,49.29,444.44,41.21,431.57,41.21z"/>
	<path d="M507.45,41.21c-11.76,0-19.12,10.69-21.32,15.37l-4.52-2.13c0.98-2.07,2.69-5.17,5.33-8.24c-3.17-3.22-7.93-5-13.25-5
		c-9.55,0-17.3,5.7-17.3,15.25v61.88c0,9.55,7.74,15.25,17.3,15.25s17.3-5.7,17.3-15.25V80.83c0-5,1.52-7.91,3.69-9.27
		c2.65,5.9,6.3,9.35,14.35,9.35c9.67,0,17.6-7.83,17.6-19.54C526.62,49.29,520.32,41.21,507.45,41.21z"/>
	<path d="M353.1,41.21c-9.55,0-17.3,5.7-17.3,15.25v61.88c0,9.55,7.74,15.25,17.3,15.25c9.55,0,17.3-5.7,17.3-15.25V56.47
		C370.39,46.92,362.65,41.21,353.1,41.21z"/>
	<path d="M614.52,82.4c0-21.38-11.98-41.19-41.26-41.19c-25.62,0-45.52,15.8-45.52,45.98c0,30.18,19.9,46.41,46.81,46.41
		c27.45,0,37.53-13.12,37.53-22.12c0-6.53-4.51-11.44-11.08-11.44c-10.55,0-10.56,7.69-25.03,7.69c-7.69,0-12.73-5.17-14.43-12.49
		h39.43C610.26,95.24,614.52,89.48,614.52,82.4z M561.36,77.23c1.63-7.64,5.77-11.83,12.02-11.83c6.45,0,10.51,4.92,11.37,11.83
		H561.36z"/>
	<path d="M308.38,41.21c-9.55,0-17.3,5.7-17.3,15.25V91.9c0,9.47-4.37,14.34-11.37,14.34c-7,0-9.74-4.5-9.74-10.53V56.47
		c0-9.55-7.74-15.25-17.3-15.25s-17.3,5.7-17.3,15.25v38.55c0,24.5,10.68,38.58,32.33,38.58c18.09,0,24.16-9.14,27.17-14.54
		l4.38,2.43c-1.35,2.44-2.91,4.63-4.64,6.58c3.16,3.56,8.15,5.53,13.76,5.53c9.55,0,17.3-5.7,17.3-15.25V56.47
		C325.68,46.92,317.93,41.21,308.38,41.21z"/>
	<path d="M717.08,77.02c-11.16-3.01-16.93-4.37-16.93-7.49c0-1.88,2.09-4.1,6.3-4.1c9.27,0,9.41,9,21.04,9
		c6.99,0,13.8-4.83,13.8-13.45c0-11.25-11.22-19.76-35.32-19.76c-25.04,0-39.85,12.44-39.85,28.81c0,18.26,13.94,23.47,26.19,26.55
		c9.61,2.42,18.18,3.83,18.18,7.82c0,2.46-2.35,4.58-8.05,4.58c-9.82,0-11.75-11.26-24.79-11.26c-7.27,0-13.07,5.87-13.07,13.2
		c0,12.3,12.79,22.69,38.75,22.69c25.62,0,40.96-11.59,40.96-28.3C744.3,86.28,729.53,80.38,717.08,77.02z"/>
	<path d="M226.11,133.6V56.47c0-9.55-7.74-15.25-17.3-15.25c-5.46,0-10.32,1.87-13.49,5.25c2.71,2.56,4.77,5.33,6.02,7.99
		l-4.52,2.13c-3.4-7.2-13.56-15.37-27.78-15.37c-23.61,0-39.3,19.17-39.3,46.19s15.69,46.19,39.3,46.19c8.54,0,16.2-2.78,22.47-7.56
		v17.21c0,14.87,5.63,25.63,21.4,25.63c14.38,0,22.92-8.89,22.92-19.01C235.83,143.82,233.02,137.14,226.11,133.6z M178.05,106.56
		c-9.05,0-14.75-7.77-14.75-19.38c0-11.61,5.7-19.38,14.75-19.38c9.05,0,14.75,7.77,14.75,19.38
		C192.8,98.8,187.1,106.56,178.05,106.56z"/>
	<path d="M639.71,0c-9.55,0-17.3,5.7-17.3,15.25v103.11c0,9.55,7.74,15.25,17.3,15.25s17.3-5.7,17.3-15.25V15.25
		C657.01,5.7,649.26,0,639.71,0z"/>
	<path d="M91.75,53.19c-14.06-6.26-22.52-9.87-22.52-17.07c0-4.49,3.47-8.25,8.63-8.25c6.02,0,8.76,2.9,9.89,9.13
		c1.49,8.22,5.97,12.01,14.96,12.01c10.63,0,19.21-7.77,19.21-18.71C121.91,12.33,105.82,0,78.41,0C52.73,0,34.24,16.53,34.24,39.33
		c0,21.65,16.23,33.38,32.73,41c11,6.18,20.21,9.8,20.21,19.53c0,6.36-5.32,9.08-10.28,9.08c-5.1,0-6.72-1.68-5.01-3.77
		c1.85-2.27,2.69-4.46,2.69-7.29c0-7.91-8.03-15.61-19.22-15.61c-14.16,0-22.08,9.33-22.08,21.19c0,7.81,3.53,14.49,8.23,18.35h-3.5
		c-6.94,0-11.73,4.72-12.49,9.59c-0.19,1.22,0.48,2.32,1.96,2.32h45.85c33.16,0,50.59-16.39,50.59-40.63
		C123.92,72.48,109.53,61.1,91.75,53.19z"/>
	<path d="M51.57,77.47c-13.42-8.56-22.33-21.53-22.33-38.14c0-3.61,0.45-6.77,0.96-9.2c0.15-0.72-0.36-1.04-0.94-0.89
		c-5.18,1.32-8.1,6.72-9.51,11.5c-0.5-2.89-0.79-6.07-0.65-8.58c0.04-0.75-0.49-0.96-1.29-0.56c-5.05,2.49-6.92,8.21-6.99,13.23
		C4.39,49.95,0,56.1,0,61.58c0,10.89,22.04,3.36,22.04,13.31c0,7.68-16.65,6.1-16.65,17.91c0,2.81,1.7,4.79,3.19,4.79
		c0.58,0,0.88-0.23,1.21-0.63c5.28-6.3,14.32-6.76,21.06-5.39C33.91,85.17,40.04,78.73,51.57,77.47z"/>
</g>
</svg>
