<?xml version="1.0" encoding="utf-8"?>
<!-- Generator: Adobe Illustrator 28.1.0, SVG Export Plug-In . SVG Version: 6.00 Build 0)  -->
<svg version="1.1" id="Layer_1" xmlns="http://www.w3.org/2000/svg" xmlns:xlink="http://www.w3.org/1999/xlink" x="0px" y="0px"
	 viewBox="0 0 162.4 151" style="enable-background:new 0 0 162.4 151;" xml:space="preserve">
<style type="text/css">
	.st0{fill:#FFFFFF;}
</style>
<g>
	<path class="st0" d="M0,112.7l4.7-5.6c3.3,2.7,6.7,4.4,10.8,4.4c3.3,0,5.2-1.3,5.2-3.4v-0.1c0-2-1.2-3.1-7.3-4.6
		c-7.3-1.9-12-3.9-12-11.1v-0.1c0-6.6,5.3-10.9,12.7-10.9c5.3,0,9.8,1.7,13.5,4.6l-4.1,6c-3.2-2.2-6.4-3.6-9.4-3.6s-4.7,1.4-4.7,3.2
		v0.1c0,2.4,1.6,3.2,7.8,4.8c7.4,1.9,11.5,4.6,11.5,10.9v0.1c0,7.2-5.5,11.2-13.3,11.2C9.9,118.5,4.3,116.6,0,112.7"/>
	<path class="st0" d="M31.6,104.2v-0.1c0-7.9,6-14.4,14.5-14.4c5.2,0,8.5,1.8,11.1,4.7l-4.8,5.2c-1.8-1.9-3.5-3.1-6.3-3.1
		c-3.9,0-6.7,3.5-6.7,7.6v0.1c0,4.2,2.7,7.7,7,7.7c2.6,0,4.5-1.1,6.4-2.9l4.6,4.7c-2.7,2.9-5.8,5.1-11.3,5.1
		C37.8,118.6,31.6,112.2,31.6,104.2"/>
	<path class="st0" d="M59,104.2v-0.1c0-8,6.4-14.4,15.1-14.4C82.6,89.7,89,96,89,104v0.1c0,8-6.4,14.4-15.1,14.4
		C65.3,118.6,59,112.2,59,104.2 M81.2,104.2v-0.1c0-4.1-2.9-7.7-7.3-7.7c-4.5,0-7.2,3.5-7.2,7.6v0.1c0,4.1,2.9,7.7,7.3,7.7
		C78.5,111.8,81.2,108.3,81.2,104.2"/>
	<path class="st0" d="M92,108.2v-18h7.9v15.5c0,3.7,1.8,5.6,4.8,5.6s4.9-1.9,4.9-5.6V90.2h7.9v27.7h-7.9V114
		c-1.8,2.3-4.1,4.4-8.1,4.4C95.5,118.5,92,114.5,92,108.2"/>
	<path class="st0" d="M122,110.1v-27h7.9v7.1h6.5v6.7h-6.5v11.8c0,1.8,0.8,2.7,2.5,2.7c1.4,0,2.7-0.4,3.9-1v6.3
		c-1.7,1-3.6,1.6-6.2,1.6C125.3,118.4,122,116.5,122,110.1"/>
	<path class="st0" d="M139.9,114.3l3.4-5.2c3,2.2,6.2,3.3,8.7,3.3c2.3,0,3.3-0.8,3.3-2.1v-0.1c0-1.7-2.7-2.3-5.8-3.2
		c-3.9-1.1-8.3-2.9-8.3-8.3v-0.1c0-5.6,4.6-8.8,10.1-8.8c3.5,0,7.4,1.2,10.4,3.2l-3,5.4c-2.7-1.6-5.5-2.6-7.5-2.6
		c-1.9,0-2.9,0.8-2.9,1.9v0.1c0,1.6,2.6,2.3,5.6,3.3c3.9,1.3,8.4,3.2,8.4,8.2v0.1c0,6.2-4.6,8.9-10.6,8.9
		C147.9,118.5,143.6,117.2,139.9,114.3"/>
	<path class="st0" d="M62.2,33c2.2,3.4,3.4,7.4,3.7,10H70c-0.3-3.3-1.7-8-4.4-12.3c-3.3-5-7.5-7.7-12.3-7.7h0
		c-3.7,0-7.1,1.6-9.4,4.5c-2.4,3-3.3,6.9-2.5,10.7l4-0.9c-0.6-2.5,0.1-5.2,1.7-7.3c1.6-1.9,3.8-3,6.2-3h0
		C57.5,27.1,60.4,30.3,62.2,33L62.2,33z"/>
	<path class="st0" d="M91.8,61.5c-1.6-2.2-2.8-4.8-3.3-7.4h-4.1c0.3,2,1.2,5.3,3.4,8.7c-1.4,2.3-3.9,4.6-6.5,6l0,0l0,0
		c-2.6-1.4-5.1-3.7-6.5-6c2.2-3.5,3.1-6.7,3.4-8.7h-4.1c-0.5,2.5-1.7,5.2-3.3,7.4l-0.7,1l0.5,1.1c1.7,3.8,5.7,7.5,9.9,9.4l0.8,0.4h0
		h0l0.8-0.4c4.2-1.9,8.2-5.6,9.9-9.4l0.5-1.1L91.8,61.5L91.8,61.5z"/>
	<path class="st0" d="M100.2,33c-2.2,3.4-3.4,7.4-3.7,10h-4.1c0.3-3.3,1.7-8,4.4-12.3c3.3-5,7.6-7.7,12.3-7.7h0
		c3.7,0,7.1,1.6,9.4,4.5c2.4,3,3.3,6.9,2.5,10.7l-4-0.9c0.6-2.5-0.1-5.2-1.7-7.3c-1.6-1.9-3.8-3-6.2-3h0
		C104.9,27.1,102,30.3,100.2,33L100.2,33z"/>
	<path class="st0" d="M74.1,43h4.1c-0.5-4.7-2.4-8.8-4-12.5C72.5,26.9,71,23.5,71,20c0-3.9,2.3-7.9,6-10.7c0.7-0.5,2.5-1.9,4.2-3.4
		c1.7,1.5,3.5,3,4.2,3.4c3.7,2.8,6,6.8,6,10.7c0,3.4-1.5,6.9-3.2,10.5c-1.6,3.6-3.5,7.8-4,12.5h4.1c0.5-3.9,2.1-7.4,3.6-10.8
		c1.8-4,3.6-7.9,3.5-12.2c-0.1-5.2-2.9-10.4-7.6-14c-0.6-0.4-3.5-2.6-5.1-4.4L81.2,0l-1.5,1.6c-1.7,1.8-4.6,4-5.1,4.4
		c-4.7,3.6-7.6,8.8-7.6,14c0,4.3,1.7,8.1,3.5,12.2C72,35.6,73.6,39.1,74.1,43L74.1,43z"/>
	<polygon class="st0" points="58,46.6 58,50.5 104.4,50.5 104.4,46.6 	"/>
	<path class="st0" d="M26.6,147.1c3.2,0,5.2-1.5,5.2-4.1c0-2.2-1.3-3.2-2.7-3.6c1.1-0.4,2.3-1.3,2.3-3.3c0-2.4-1.9-3.8-5-3.8h-6.8
		v14.8H26.6L26.6,147.1z M26.2,140.8c1.7,0,2.5,0.6,2.5,1.9c0,1.3-0.8,1.9-2.5,1.9h-3.5v-3.8H26.2L26.2,140.8z M25.8,134.7
		c1.7,0,2.5,0.6,2.5,1.8c0,1.2-0.8,1.7-2.5,1.7h-3.1v-3.5L25.8,134.7L25.8,134.7z M37,147.1v-5.4c0-1.6,0.9-2.3,2.4-2.4l1.8-0.2
		l-0.2-2.6l-0.9,0.1c-1.6,0.1-2.7,0.8-3.2,1.9v-1.7h-3V147L37,147.1L37,147.1z M45.4,147.1v-10.3h-3.2v10.3H45.4L45.4,147.1z
		 M45.5,134.7v-3h-3.4v3H45.5L45.5,134.7z M52.7,151c3.7,0,5.7-1.7,5.7-5.1v-9.2h-3.2v1.4c-0.5-0.8-1.3-1.7-3.3-1.7
		c-2.8,0-4.6,2-4.6,5.1c0,3.1,1.8,5.1,4.6,5.1c2,0,2.9-0.9,3.3-1.7v1.1c0,1.6-0.9,2.5-2.6,2.5c-1.3,0-2.6-0.4-4-1.1l-0.8,2.2
		C48.8,150.4,49.8,151,52.7,151L52.7,151z M52.8,138.9c1.5,0,2.3,1,2.3,2.7c0,1.7-0.8,2.7-2.3,2.7s-2.4-1-2.4-2.7
		C50.4,139.9,51.3,138.9,52.8,138.9L52.8,138.9z M70.9,147.1v-6.2c0-2.9-1.2-4.4-3.7-4.4c-1.9,0-2.8,0.9-3.3,1.6v-5.9h-3.2V147h3.2
		v-5.8c0-1.4,0.8-2.3,2.2-2.3c1.1,0,1.6,0.6,1.6,2v6.1L70.9,147.1L70.9,147.1z M78.6,147.2c0.4,0,0.8,0,1.2-0.1l0.2-2.3
		c-0.4,0-0.7,0.1-1,0.1c-1.2,0-1.7-0.6-1.7-1.9v-3.9h2.6v-2.4h-2.6v-3h-3.2v3h-2v2.4H74v3.9C74.1,145.9,75.5,147.2,78.6,147.2
		L78.6,147.2z M86.3,147.2c3.4,0,5.5-2,5.5-5.4s-2.1-5.4-5.5-5.4c-3.4,0-5.5,2-5.5,5.4S82.9,147.2,86.3,147.2L86.3,147.2z
		 M86.3,138.9c1.5,0,2.3,1,2.3,3c0,2-0.8,3-2.3,3c-1.6,0-2.3-1-2.3-3S84.8,138.9,86.3,138.9L86.3,138.9z M103.8,147.1v-6.2
		c0-2.9-1.2-4.4-3.7-4.4c-2,0-2.9,0.9-3.4,1.7v-1.5h-3.1V147h3.2v-5.8c0-1.4,0.8-2.3,2.2-2.3c1.1,0,1.6,0.6,1.6,2v6.1L103.8,147.1
		L103.8,147.1z M125.6,147.1v-14.8h-3.2v6h-6.8v-6h-3.2v14.8h3.2v-6.2h6.8v6.2H125.6L125.6,147.1z M131.4,147.1v-10.3h-3.2v10.3
		H131.4L131.4,147.1z M131.6,134.7v-3h-3.4v3H131.6L131.6,134.7z M137.1,147.1v-14.8h-3.2v14.8H137.1L137.1,147.1z M142.7,147.1
		v-14.8h-3.2v14.8H142.7L142.7,147.1z"/>
</g>
</svg>
