<?xml version="1.0" encoding="utf-8"?>
<!-- Generator: Adobe Illustrator 28.1.0, SVG Export Plug-In . SVG Version: 6.00 Build 0)  -->
<svg version="1.1" id="Layer_1" xmlns="http://www.w3.org/2000/svg" xmlns:xlink="http://www.w3.org/1999/xlink" x="0px" y="0px"
	 viewBox="0 0 259.8 95" style="enable-background:new 0 0 259.8 95;" xml:space="preserve">
<style type="text/css">
	.st0{fill:#FFFFFF;}
</style>
<g>
	<path class="st0" d="M0,57.2l4.7-5.6c3.3,2.7,6.7,4.4,10.8,4.4c3.3,0,5.2-1.3,5.2-3.4v-0.1c0-2-1.2-3-7.3-4.6
		c-7.3-1.9-12-3.9-12-11.1v-0.1c0-6.6,5.3-10.9,12.7-10.9c5.3,0,9.8,1.7,13.5,4.6l-4.1,6c-3.2-2.2-6.4-3.6-9.4-3.6s-4.7,1.4-4.7,3.2
		V36c0,2.4,1.6,3.2,7.8,4.8c7.4,1.9,11.5,4.6,11.5,10.9v0.1c0,7.2-5.5,11.2-13.3,11.2C9.9,63,4.3,61.1,0,57.2"/>
	<path class="st0" d="M31.7,48.7v-0.1c0-7.9,6.1-14.4,14.5-14.4c5.2,0,8.5,1.8,11.1,4.7L52.5,44C50.7,42.2,49,41,46.2,41
		c-3.9,0-6.7,3.5-6.7,7.6v0.1c0,4.2,2.7,7.7,7,7.7c2.6,0,4.5-1.1,6.4-3l4.6,4.7c-2.7,3-5.8,5.1-11.3,5.1
		C37.8,63.1,31.7,56.7,31.7,48.7"/>
	<path class="st0" d="M81.2,48.7v-0.1c0-4.1-2.9-7.7-7.3-7.7c-4.5,0-7.2,3.5-7.2,7.6v0.1c0,4.1,2.9,7.7,7.3,7.7
		C78.6,56.3,81.2,52.8,81.2,48.7 M59,48.7v-0.1c0-8,6.4-14.4,15.1-14.4c8.6,0,15,6.4,15,14.3v0.1c0,8-6.4,14.5-15.1,14.5
		C65.3,63.1,59,56.7,59,48.7"/>
	<path class="st0" d="M92.1,52.7v-18h7.9v15.5c0,3.7,1.8,5.6,4.8,5.6s4.9-1.9,4.9-5.6V34.7h7.9v27.8h-7.9v-3.9
		c-1.8,2.3-4.1,4.5-8.1,4.5C95.6,63,92.1,59,92.1,52.7"/>
	<path class="st0" d="M122.1,54.6v-27h7.9v7.1h6.5v6.7h-6.5v11.9c0,1.8,0.8,2.7,2.5,2.7c1.4,0,2.7-0.4,3.9-1v6.3
		c-1.7,1-3.6,1.6-6.2,1.6C125.3,62.9,122.1,61,122.1,54.6"/>
	<path class="st0" d="M139.9,58.8l3.4-5.2c3,2.2,6.2,3.3,8.8,3.3c2.3,0,3.3-0.8,3.3-2.1v-0.1c0-1.7-2.7-2.3-5.8-3.2
		c-3.9-1.1-8.3-3-8.3-8.3v-0.1c0-5.6,4.6-8.8,10.1-8.8c3.5,0,7.4,1.2,10.4,3.2l-3,5.4c-2.7-1.6-5.5-2.6-7.5-2.6
		c-1.9,0-2.9,0.8-2.9,1.9v0.1c0,1.5,2.6,2.3,5.6,3.3c3.9,1.3,8.4,3.2,8.4,8.2V54c0,6.2-4.6,9-10.6,9C148,63,143.6,61.7,139.9,58.8"
		/>
	<path class="st0" d="M200.6,33c2.2,3.4,3.4,7.4,3.7,10h4.1c-0.3-3.3-1.7-8-4.4-12.3c-3.3-5-7.6-7.7-12.4-7.7h0
		c-3.7,0-7.1,1.6-9.4,4.5c-2.4,3-3.4,6.9-2.5,10.7l4-0.9c-0.6-2.5,0.1-5.3,1.7-7.3c1.6-1.9,3.8-3,6.2-3h0
		C195.9,27.1,198.9,30.3,200.6,33"/>
	<path class="st0" d="M230.2,61.5c-1.6-2.2-2.8-4.8-3.3-7.4h-4.1c0.3,2,1.2,5.3,3.4,8.7c-1.4,2.3-3.9,4.6-6.5,6c0,0,0,0,0,0l0,0
		c-2.6-1.4-5.1-3.7-6.5-6c2.2-3.5,3.1-6.7,3.4-8.7h-4.1c-0.5,2.5-1.7,5.2-3.3,7.4l-0.7,1l0.5,1.1c1.7,3.8,5.7,7.6,9.9,9.4l0.8,0.4h0
		h0l0.8-0.4c4.2-1.9,8.2-5.6,9.9-9.4l0.5-1.1L230.2,61.5L230.2,61.5z"/>
	<path class="st0" d="M238.6,33c-2.2,3.4-3.4,7.4-3.7,10h-4.1c0.3-3.3,1.7-8,4.4-12.3c3.3-5,7.6-7.7,12.4-7.7h0
		c3.7,0,7.1,1.6,9.4,4.5c2.4,3,3.4,6.9,2.5,10.7l-4-0.9c0.6-2.5-0.1-5.3-1.7-7.3c-1.6-1.9-3.8-3-6.2-3h0
		C243.4,27.1,240.4,30.3,238.6,33"/>
	<path class="st0" d="M212.5,43h4.1c-0.5-4.7-2.4-8.8-4-12.5c-1.6-3.6-3.2-7.1-3.2-10.5c0-3.9,2.3-7.9,6-10.7
		c0.6-0.5,2.5-1.9,4.2-3.4c1.7,1.5,3.5,3,4.2,3.4c3.7,2.8,6,6.8,6,10.7c0,3.4-1.5,6.9-3.2,10.5s-3.5,7.8-4,12.5h4.1
		c0.5-3.9,2.1-7.4,3.6-10.8c1.8-4,3.6-7.9,3.5-12.2c-0.1-5.2-2.9-10.4-7.6-14c-0.6-0.4-3.5-2.6-5.1-4.4L219.6,0l-1.5,1.6
		c-1.7,1.8-4.6,4-5.1,4.4c-4.7,3.5-7.6,8.8-7.6,14c0,4.3,1.7,8.1,3.5,12.2C210.4,35.6,212,39.1,212.5,43"/>
	<polygon class="st0" points="196.4,50.5 242.9,50.5 242.9,46.6 196.4,46.6 	"/>
	<path class="st0" d="M7.6,91.1c3.2,0,5.2-1.5,5.2-4.1c0-2.2-1.3-3.2-2.7-3.6c1.1-0.4,2.3-1.3,2.3-3.3c0-2.4-1.9-3.8-5-3.8H0.5v14.8
		H7.6L7.6,91.1z M7.2,84.8c1.7,0,2.5,0.6,2.5,1.9c0,1.3-0.8,1.9-2.5,1.9H3.7v-3.8L7.2,84.8L7.2,84.8z M6.8,78.8
		c1.7,0,2.5,0.6,2.5,1.8c0,1.2-0.8,1.7-2.5,1.7H3.7v-3.5L6.8,78.8L6.8,78.8z M17.9,91.1v-5.4c0-1.6,0.9-2.3,2.4-2.4l1.8-0.2
		l-0.2-2.6L21,80.5c-1.6,0.1-2.7,0.8-3.2,1.9v-1.7h-3V91L17.9,91.1L17.9,91.1z M26.3,91.1V80.7h-3.2V91L26.3,91.1L26.3,91.1z
		 M26.5,78.8v-3h-3.4v3H26.5L26.5,78.8z M33.6,95c3.7,0,5.7-1.7,5.7-5.1v-9.2h-3.2v1.4c-0.5-0.8-1.3-1.7-3.3-1.7
		c-2.8,0-4.6,2-4.6,5.1c0,3.2,1.8,5.1,4.6,5.1c2,0,2.9-0.9,3.3-1.7v1.1c0,1.6-0.9,2.5-2.6,2.5c-1.3,0-2.6-0.4-4-1.1l-0.8,2.2
		C29.8,94.4,30.8,95,33.6,95L33.6,95z M33.8,82.9c1.5,0,2.3,1,2.3,2.7c0,1.7-0.8,2.7-2.3,2.7s-2.4-1-2.4-2.7
		C31.4,83.9,32.3,82.9,33.8,82.9L33.8,82.9z M51.8,91.1v-6.2c0-2.9-1.2-4.3-3.7-4.3c-1.9,0-2.8,0.9-3.3,1.6v-5.9h-3.2v14.8h3.2v-5.8
		c0-1.4,0.8-2.3,2.2-2.3c1.1,0,1.6,0.6,1.6,2v6.1L51.8,91.1L51.8,91.1z M59.5,91.2c0.4,0,0.8,0,1.2-0.1l0.2-2.3
		c-0.4,0-0.7,0.1-1,0.1c-1.2,0-1.7-0.6-1.7-1.8v-3.9h2.6v-2.4h-2.6v-3H55v3h-2v2.4h2v3.9C55,89.9,56.5,91.2,59.5,91.2L59.5,91.2z
		 M67.3,91.2c3.4,0,5.5-2,5.5-5.4s-2.1-5.3-5.5-5.3c-3.4,0-5.5,2-5.5,5.3S63.9,91.2,67.3,91.2L67.3,91.2z M67.3,82.9
		c1.5,0,2.3,1,2.3,3c0,2-0.8,3-2.3,3c-1.6,0-2.3-1-2.3-3S65.8,82.9,67.3,82.9L67.3,82.9z M84.8,91.1v-6.2c0-2.9-1.2-4.3-3.7-4.3
		c-2,0-2.9,0.9-3.4,1.7v-1.5h-3.1v10.3h3.2v-5.8c0-1.4,0.8-2.3,2.2-2.3c1.1,0,1.6,0.6,1.6,2v6.1L84.8,91.1L84.8,91.1z M106.6,91.1
		V76.2h-3.2v6h-6.8v-6h-3.2v14.8h3.2v-6.2h6.8v6.2H106.6L106.6,91.1z M112.4,91.1V80.7h-3.2V91L112.4,91.1L112.4,91.1z M112.5,78.8
		v-3h-3.4v3H112.5L112.5,78.8z M118,91.1V76.2h-3.2v14.8H118L118,91.1z M123.6,91.1V76.2h-3.2v14.8H123.6L123.6,91.1z"/>
</g>
</svg>
