<?xml version="1.0" encoding="utf-8"?>
<!-- Generator: Adobe Illustrator 27.5.0, SVG Export Plug-In . SVG Version: 6.00 Build 0)  -->
<svg version="1.1" id="fleurdelis" xmlns="http://www.w3.org/2000/svg" xmlns:xlink="http://www.w3.org/1999/xlink" x="0px" y="0px"
	 viewBox="0 0 611.8 557.5" style="enable-background:new 0 0 611.8 557.5;" xml:space="preserve">
	 <!-- icon.svg -->
<style>
  path {
    fill: #7413DC;
  }
  @media (prefers-color-scheme: dark) {
    path {
      fill: white;
    }
  }
</style>
<g id="paths">
	<path d="M129 354.5 L129 384.5 L483 384.5 L483 354.5 L129 354.5 Z" />
	<path d="M251.8,327.2H283c-3.9-35.9-18-67.2-30.5-94.9s-24.2-53.8-24.1-79.8c0.3-29.9,17.3-60.5,45.7-81.7
		c5-3.7,19.1-14.6,31.8-26.2c12.7,11.6,26.8,22.5,31.8,26.2c28.4,21.2,45.4,51.8,45.7,81.7c0.2,26-11.6,52.2-24.1,79.8
		c-12.5,27.7-26.6,59-30.5,94.9H360c3.9-29.7,15.9-56.4,27.5-82.2c13.9-30.8,27-59.9,26.8-92.8c-0.4-39.6-22.1-79.3-58.1-106.2
		c-4.2-3.2-26.3-20-39-33.7L305.9,0l-11.3,12.2c-12.7,13.7-34.8,30.5-39,33.7c-36,27-57.7,66.6-58.1,106.2
		c-0.2,32.8,12.9,62,26.8,92.8C235.9,270.8,247.9,297.5,251.8,327.2z"/>
	<path d="M450.6,250.7c-17.1,26.2-25.7,56.1-28.4,76.4H391c2.6-24.8,12.6-61.2,33.6-93.3c24.9-38.2,57.4-58.5,93.9-58.5h0.2
		c27.8,0,53.9,12.5,71.5,34.3c18.5,22.9,25.5,52.6,19.2,81.4l-30.2-6.6c4.2-19.3-0.7-40-13.1-55.3c-11.9-14.7-28.7-22.8-47.4-22.8
		h-0.2C486.4,206.3,463.8,230.5,450.6,250.7z"/>
	<path d="M386.2,467.6c-12.1-16.8-21-36.9-24.9-56.2h-31.5c2.4,15.1,8.8,40,25.7,66.2c-10.6,17.7-29.6,35.2-49.6,45.7l0,0l0,0
		c-20.1-10.5-39.1-27.9-49.6-45.7c16.9-26.3,23.3-51.2,25.7-66.2h-31.5c-3.9,19.3-12.7,39.4-24.9,56.2l-5.3,7.3l3.8,8.2
		c13.1,28.7,43.5,57.4,75.5,71.5l6.2,2.8l0,0l0,0l6.2-2.8c32-14.1,62.4-42.9,75.5-71.5l3.8-8.2L386.2,467.6z"/>
	<path d="M161.2,250.7c17.1,26.2,25.7,56.1,28.4,76.4h31.2c-2.6-24.8-12.6-61.2-33.6-93.3c-24.9-38.2-57.4-58.5-93.9-58.5H93
		c-27.8,0-53.9,12.5-71.5,34.3C3,232.6-4,262.2,2.3,291l30.2-6.6c-4.2-19.3,0.7-40,13.1-55.3c11.9-14.7,28.7-22.8,47.4-22.8h0.2
		C125.4,206.3,147.9,230.5,161.2,250.7z"/>
</g>
</svg>
